<svg version="1.1" xmlns="http://www.w3.org/2000/svg" viewBox="0 0 3546.221655648852 858.7023323254709" width="3546.221655648852" height="858.7023323254709" filter="invert(93%) hue-rotate(180deg)">
  <!-- svg-source:excalidraw -->
  
  <defs>
    <style>
      @font-face {
        font-family: "Virgil";
        src: url("https://unpkg.com/@zsviczian/excalidraw@0.11.0-obsidian-18/dist/excalidraw-assets/Virgil.woff2");
      }
      @font-face {
        font-family: "Cascadia";
        src: url("https://unpkg.com/@zsviczian/excalidraw@0.11.0-obsidian-18/dist/excalidraw-assets/Cascadia.woff2");
      }
    </style>
  </defs>
  <rect x="0" y="0" width="3546.221655648852" height="858.7023323254709" fill="#ffffff"/><g transform="translate(969.401771284576 436.3119251218618) rotate(0 165.5 16)"><text x="0" y="26" font-family="Helvetica, Segoe UI Emoji" font-size="28px" fill="#000000" text-anchor="start" style="white-space: pre;" direction="ltr">Mental health and nutrition</text></g><g stroke-linecap="round" transform="translate(919.2165634937774 400.20079705654064) rotate(0 213.1481424967448 54.81483459472657)"><path d="M173.29 0.16 C193.23 -1.99, 218.87 -1.33, 240.55 -0.53 C262.23 0.27, 283.41 2.48, 303.37 4.97 C323.33 7.45, 344.02 10.48, 360.3 14.4 C376.57 18.32, 390.62 23.44, 401.02 28.49 C411.42 33.53, 418.67 39.11, 422.72 44.68 C426.77 50.25, 428.18 56.28, 425.32 61.92 C422.45 67.55, 415.13 73.34, 405.52 78.48 C395.92 83.62, 382.71 88.66, 367.71 92.77 C352.72 96.89, 334.75 100.5, 315.56 103.16 C296.37 105.83, 274.27 107.76, 252.57 108.76 C230.88 109.77, 207.14 109.77, 185.37 109.18 C163.61 108.6, 141.71 107.67, 121.98 105.26 C102.25 102.84, 83.01 98.79, 66.99 94.69 C50.97 90.59, 36.33 85.54, 25.84 80.66 C15.36 75.78, 8.08 70.73, 4.08 65.41 C0.09 60.09, -0.72 54.4, 1.86 48.76 C4.44 43.12, 10.1 36.99, 19.55 31.59 C28.99 26.2, 43.25 20.54, 58.54 16.38 C73.83 12.22, 88.53 9.24, 111.31 6.63 C134.09 4.02, 178.03 1.54, 195.23 0.74 C212.43 -0.07, 214.36 0.92, 214.5 1.81 M275.49 3.62 C296.54 4.39, 316.95 8.01, 334.74 11.25 C352.53 14.49, 369.11 19.05, 382.2 23.07 C395.29 27.09, 405.85 30.27, 413.31 35.38 C420.76 40.49, 426.45 47.91, 426.92 53.72 C427.39 59.52, 422.73 64.57, 416.12 70.21 C409.52 75.85, 399.72 82.69, 387.29 87.55 C374.85 92.41, 358.68 96.43, 341.51 99.38 C324.34 102.33, 304.77 103.65, 284.28 105.24 C263.79 106.84, 240.75 108.75, 218.57 108.95 C196.38 109.14, 172.33 108.07, 151.19 106.41 C130.04 104.74, 109.61 102.18, 91.71 98.96 C73.8 95.73, 56.88 91.64, 43.77 87.07 C30.65 82.51, 20.54 76.71, 13.01 71.57 C5.47 66.44, -0.98 61.52, -1.43 56.29 C-1.88 51.05, 3.96 45.72, 10.3 40.14 C16.65 34.56, 24.49 27.54, 36.62 22.81 C48.75 18.08, 65.25 14.9, 83.08 11.76 C100.91 8.61, 122.55 6.08, 143.63 3.92 C164.71 1.77, 187.82 -0.74, 209.55 -1.18 C231.28 -1.63, 263.29 0.36, 274 1.23 C284.72 2.1, 274.8 2.75, 273.86 4.06" stroke="#000000" stroke-width="4" fill="none"/></g><g transform="translate(1504.364655127892 383.51560621995213) rotate(0 243.49999999999997 16)"><text x="0" y="26" font-family="Helvetica, Segoe UI Emoji" font-size="28px" fill="#862e9c" text-anchor="start" style="white-space: pre;" direction="ltr">Nutrition and Mental Health: Why now?</text></g><g transform="translate(1410.253530453413 707.8489192082334) rotate(0 297 16)"><text x="0" y="26" font-family="Helvetica, Segoe UI Emoji" font-size="28px" fill="#0b7285" text-anchor="start" style="white-space: pre;" direction="ltr">Introduction to nutrients relevant to brain health.</text></g><g transform="translate(726.2536118336213 765.1823746118791) rotate(0 218.5 16)"><text x="0" y="26" font-family="Helvetica, Segoe UI Emoji" font-size="28px" fill="#d9480f" text-anchor="start" style="white-space: pre;" direction="ltr">Dietary patterns and mental health.</text></g><g transform="translate(77.96303219265417 457.2065685304823) rotate(0 372.5 16)"><text x="0" y="26" font-family="Helvetica, Segoe UI Emoji" font-size="28px" fill="#a61e4d" text-anchor="start" style="white-space: pre;" direction="ltr">The factors that influence the supply of nutrients to the brain</text></g><g transform="translate(10 147.28058255839568) rotate(0 448.5 16)"><text x="0" y="26" font-family="Helvetica, Segoe UI Emoji" font-size="28px" fill="#5c940d" text-anchor="start" style="white-space: pre;" direction="ltr">Supplementation as treatment for mental health problems: The evidence</text></g><g transform="translate(1214.6296564737959 144.15097906650658) rotate(0 372.5 16)"><text x="0" y="26" font-family="Helvetica, Segoe UI Emoji" font-size="28px" fill="#364fc7" text-anchor="start" style="white-space: pre;" direction="ltr">The bigger context: What can you do to build a better brain?</text></g><g transform="translate(2611.443148537288 196.1972640599962) rotate(0 101 16)"><text x="0" y="26" font-family="Helvetica, Segoe UI Emoji" font-size="28px" fill="#862e9c" text-anchor="start" style="white-space: pre;" direction="ltr">Try a food diary </text></g><g transform="translate(2954.776481870621 109.53059739332951) rotate(0 140.5000000000001 16)"><text x="0" y="26" font-family="Helvetica, Segoe UI Emoji" font-size="28px" fill="#862e9c" text-anchor="start" style="white-space: pre;" direction="ltr">and note meal + mood</text></g><g stroke-linecap="round"><g transform="translate(2820.0310980781674 207.57145327613478) rotate(0 61.428571428571445 -34.28571428571428)"><path d="M0 0 C20.48 -11.43, 102.38 -57.14, 122.86 -68.57 M0 0 C20.48 -11.43, 102.38 -57.14, 122.86 -68.57" stroke="#862e9c" stroke-width="2" fill="none"/></g><g transform="translate(2820.0310980781674 207.57145327613478) rotate(0 61.428571428571445 -34.28571428571428)"><path d="M103.24 -45.87 C110.72 -54.52, 118.19 -63.18, 122.86 -68.57 M103.24 -45.87 C109.56 -53.18, 115.88 -60.49, 122.86 -68.57" stroke="#862e9c" stroke-width="2" fill="none"/></g><g transform="translate(2820.0310980781674 207.57145327613478) rotate(0 61.428571428571445 -34.28571428571428)"><path d="M93.24 -63.79 C104.53 -65.61, 115.82 -67.44, 122.86 -68.57 M93.24 -63.79 C102.78 -65.33, 112.32 -66.87, 122.86 -68.57" stroke="#862e9c" stroke-width="2" fill="none"/></g></g><g transform="translate(2516.507329244462 56.09521775018618) rotate(0 155 32)"><text x="0" y="26" font-family="Helvetica, Segoe UI Emoji" font-size="28px" fill="#862e9c" text-anchor="start" style="white-space: pre;" direction="ltr">40% of nutriment we eat </text><text x="0" y="58" font-family="Helvetica, Segoe UI Emoji" font-size="28px" fill="#862e9c" text-anchor="start" style="white-space: pre;" direction="ltr">feed the brain</text></g><g transform="translate(2235.2215640961176 680.3333740234375) rotate(0 175.5 16)"><text x="0" y="26" font-family="Helvetica, Segoe UI Emoji" font-size="28px" fill="#862e9c" text-anchor="start" style="white-space: pre;" direction="ltr">food = nutricious substance </text></g><g transform="translate(2500.44375240992 755.2222290039062) rotate(0 316.4999999999999 16)"><text x="0" y="26" font-family="Helvetica, Segoe UI Emoji" font-size="28px" fill="#862e9c" text-anchor="start" style="white-space: pre;" direction="ltr"> ultra-processed foods is not a nutritious substance</text></g><g stroke-linecap="round"><g transform="translate(2353.7772179860917 724.2222798665365) rotate(0 72.11109415690112 29.71886602260497)"><path d="M0 0 C5.7 8.33, 10.19 40.09, 34.22 50 C58.26 59.91, 125.89 57.86, 144.22 59.44 M0 0 C5.7 8.33, 10.19 40.09, 34.22 50 C58.26 59.91, 125.89 57.86, 144.22 59.44" stroke="#862e9c" stroke-width="2" fill="none"/></g><g transform="translate(2353.7772179860917 724.2222798665365) rotate(0 72.11109415690112 29.71886602260497)"><path d="M115.72 68.81 C122.85 66.46, 129.98 64.12, 144.22 59.44 M115.72 68.81 C125.09 65.73, 134.46 62.65, 144.22 59.44" stroke="#862e9c" stroke-width="2" fill="none"/></g><g transform="translate(2353.7772179860917 724.2222798665365) rotate(0 72.11109415690112 29.71886602260497)"><path d="M116.37 48.29 C123.33 51.08, 130.3 53.87, 144.22 59.44 M116.37 48.29 C125.53 51.96, 134.68 55.62, 144.22 59.44" stroke="#862e9c" stroke-width="2" fill="none"/></g></g><g stroke-linecap="round"><g transform="translate(2001.8882816254147 404.5984304587006) rotate(0 249.85711742582782 -154.5426903032524)"><path d="M0 0 C83.29 -51.51, 416.43 -257.57, 499.71 -309.09 M0 0 C83.29 -51.51, 416.43 -257.57, 499.71 -309.09" stroke="#862e9c" stroke-width="2" fill="none"/></g><g transform="translate(2001.8882816254147 404.5984304587006) rotate(0 249.85711742582782 -154.5426903032524)"><path d="M481.14 -285.53 C487.88 -294.08, 494.62 -302.63, 499.71 -309.09 M481.14 -285.53 C488 -294.23, 494.86 -302.93, 499.71 -309.09" stroke="#862e9c" stroke-width="2" fill="none"/></g><g transform="translate(2001.8882816254147 404.5984304587006) rotate(0 249.85711742582782 -154.5426903032524)"><path d="M470.34 -302.98 C481 -305.2, 491.66 -307.41, 499.71 -309.09 M470.34 -302.98 C481.19 -305.24, 492.04 -307.49, 499.71 -309.09" stroke="#862e9c" stroke-width="2" fill="none"/></g></g><g stroke-linecap="round"><g transform="translate(2004.5549076019772 400.72743068025704) rotate(0 300.3333740234374 -91.41317433557003)"><path d="M0 0 C100.11 -30.47, 500.56 -152.36, 600.67 -182.83 M0 0 C100.11 -30.47, 500.56 -152.36, 600.67 -182.83" stroke="#862e9c" stroke-width="2" fill="none"/></g><g transform="translate(2004.5549076019772 400.72743068025704) rotate(0 300.3333740234374 -91.41317433557003)"><path d="M576.69 -164.8 C583.05 -169.58, 589.41 -174.36, 600.67 -182.83 M576.69 -164.8 C584.89 -170.97, 593.09 -177.13, 600.67 -182.83" stroke="#862e9c" stroke-width="2" fill="none"/></g><g transform="translate(2004.5549076019772 400.72743068025704) rotate(0 300.3333740234374 -91.41317433557003)"><path d="M570.71 -184.43 C578.65 -184.01, 586.6 -183.58, 600.67 -182.83 M570.71 -184.43 C580.96 -183.88, 591.21 -183.33, 600.67 -182.83" stroke="#862e9c" stroke-width="2" fill="none"/></g></g><g transform="translate(3193.221655648852 10) rotate(0 171.5 32)"><text x="0" y="26" font-family="Helvetica, Segoe UI Emoji" font-size="28px" fill="#862e9c" text-anchor="start" style="white-space: pre;" direction="ltr">like the 7 day to stop sugar </text><text x="0" y="58" font-family="Helvetica, Segoe UI Emoji" font-size="28px" fill="#862e9c" text-anchor="start" style="white-space: pre;" direction="ltr">but with every meal</text></g><g stroke-linecap="round"><g transform="translate(3119.8882816254145 105.66668701171875) rotate(0 29.33331298828125 -28.666671752929688)"><path d="M0 0 C-2 -6, -23.78 -26.44, -12 -36 C-0.22 -45.56, 56.89 -53.78, 70.67 -57.33 M0 0 C-2 -6, -23.78 -26.44, -12 -36 C-0.22 -45.56, 56.89 -53.78, 70.67 -57.33" stroke="#862e9c" stroke-width="2" fill="none"/></g><g transform="translate(3119.8882816254145 105.66668701171875) rotate(0 29.33331298828125 -28.666671752929688)"><path d="M45.06 -41.71 C50.57 -45.07, 56.08 -48.44, 70.67 -57.33 M45.06 -41.71 C51.14 -45.42, 57.23 -49.14, 70.67 -57.33" stroke="#862e9c" stroke-width="2" fill="none"/></g><g transform="translate(3119.8882816254145 105.66668701171875) rotate(0 29.33331298828125 -28.666671752929688)"><path d="M41.01 -61.83 C47.39 -60.86, 53.77 -59.89, 70.67 -57.33 M41.01 -61.83 C48.05 -60.76, 55.1 -59.69, 70.67 -57.33" stroke="#862e9c" stroke-width="2" fill="none"/></g></g><g transform="translate(2397.8069744715613 816.7023323254709) rotate(0 298 16)"><text x="0" y="26" font-family="Helvetica, Segoe UI Emoji" font-size="28px" fill="#862e9c" text-anchor="start" style="white-space: pre;" direction="ltr">processus food = food altered from original form</text></g><g stroke-linecap="round"><g transform="translate(2304.473590275598 723.5912381685698) rotate(0 36.66671752929699 57.859729094028495)"><path d="M0 0 C-1.67 9.26, -23.89 36.27, -10 55.56 C3.89 74.84, 67.78 105.69, 83.33 115.72 M0 0 C-1.67 9.26, -23.89 36.27, -10 55.56 C3.89 74.84, 67.78 105.69, 83.33 115.72" stroke="#862e9c" stroke-width="2" fill="none"/></g><g transform="translate(2304.473590275598 723.5912381685698) rotate(0 36.66671752929699 57.859729094028495)"><path d="M53.74 110.8 C64.85 112.64, 75.97 114.49, 83.33 115.72 M53.74 110.8 C60.51 111.92, 67.28 113.05, 83.33 115.72" stroke="#862e9c" stroke-width="2" fill="none"/></g><g transform="translate(2304.473590275598 723.5912381685698) rotate(0 36.66671752929699 57.859729094028495)"><path d="M63.83 92.93 C71.15 101.49, 78.48 110.05, 83.33 115.72 M63.83 92.93 C68.29 98.14, 72.75 103.36, 83.33 115.72" stroke="#862e9c" stroke-width="2" fill="none"/></g></g><g transform="translate(2437.251401961796 403.09118730593957) rotate(0 304 32)"><text x="0" y="26" font-family="Helvetica, Segoe UI Emoji" font-size="28px" fill="#862e9c" text-anchor="start" style="white-space: pre;" direction="ltr">does Western diet contains the type of </text><text x="0" y="58" font-family="Helvetica, Segoe UI Emoji" font-size="28px" fill="#862e9c" text-anchor="start" style="white-space: pre;" direction="ltr">foods that our brains need for optimal functioning</text></g><g transform="translate(2694.751401961796 705.5911873059396) rotate(0 240.4999999999999 16)"><text x="0" y="26" font-family="Helvetica, Segoe UI Emoji" font-size="28px" fill="#862e9c" text-anchor="start" style="white-space: pre;" direction="ltr">unprocess food is the best kind of food</text></g><g transform="translate(2842.251401961796 648.0911873059396) rotate(0 4.5 16)"><text x="0" y="26" font-family="Helvetica, Segoe UI Emoji" font-size="28px" fill="#862e9c" text-anchor="start" style="white-space: pre;" direction="ltr"/></g><g stroke-linecap="round"><g transform="translate(2587.251401961796 713.5911873059396) rotate(0 50 11.666679382324219)"><path d="M0 0 C16.67 3.89, 83.33 19.44, 100 23.33 M0 0 C16.67 3.89, 83.33 19.44, 100 23.33" stroke="#862e9c" stroke-width="2" fill="none"/></g><g transform="translate(2587.251401961796 713.5911873059396) rotate(0 50 11.666679382324219)"><path d="M70.22 26.92 C79.58 25.79, 88.95 24.66, 100 23.33 M70.22 26.92 C77.34 26.06, 84.46 25.2, 100 23.33" stroke="#862e9c" stroke-width="2" fill="none"/></g><g transform="translate(2587.251401961796 713.5911873059396) rotate(0 50 11.666679382324219)"><path d="M74.88 6.94 C82.78 12.09, 90.68 17.25, 100 23.33 M74.88 6.94 C80.89 10.86, 86.89 14.78, 100 23.33" stroke="#862e9c" stroke-width="2" fill="none"/></g></g><g transform="translate(3124.7514019617956 793.0911873059396) rotate(0 127.5 16)"><text x="0" y="26" font-family="Helvetica, Segoe UI Emoji" font-size="28px" fill="#862e9c" text-anchor="start" style="white-space: pre;" direction="ltr">high in carbohydrate</text></g><g stroke-linecap="round"><g transform="translate(3033.918119491093 793.5911873059396) rotate(0 39.16664123535156 10)"><path d="M0 0 C13.06 3.33, 65.28 16.67, 78.33 20 M0 0 C13.06 3.33, 65.28 16.67, 78.33 20" stroke="#862e9c" stroke-width="2" fill="none"/></g><g transform="translate(3033.918119491093 793.5911873059396) rotate(0 39.16664123535156 10)"><path d="M48.48 22.97 C57.8 22.04, 67.13 21.11, 78.33 20 M48.48 22.97 C54.89 22.33, 61.3 21.69, 78.33 20" stroke="#862e9c" stroke-width="2" fill="none"/></g><g transform="translate(3033.918119491093 793.5911873059396) rotate(0 39.16664123535156 10)"><path d="M53.56 3.08 C61.29 8.37, 69.03 13.65, 78.33 20 M53.56 3.08 C58.88 6.72, 64.2 10.35, 78.33 20" stroke="#862e9c" stroke-width="2" fill="none"/></g></g></svg>