<svg version="1.1" xmlns="http://www.w3.org/2000/svg" viewBox="0 0 4637.085290212481 1982.1686435275608" width="4637.085290212481" height="1982.1686435275608" filter="invert(93%) hue-rotate(180deg)">
  <!-- svg-source:excalidraw -->
  
  <defs>
    <style>
      @font-face {
        font-family: "Virgil";
        src: url("https://unpkg.com/@zsviczian/excalidraw@0.11.0-obsidian-20/dist/excalidraw-assets/Virgil.woff2");
      }
      @font-face {
        font-family: "Cascadia";
        src: url("https://unpkg.com/@zsviczian/excalidraw@0.11.0-obsidian-20/dist/excalidraw-assets/Cascadia.woff2");
      }
    </style>
  </defs>
  <rect x="0" y="0" width="4637.085290212481" height="1982.1686435275608" fill="#ffffff"/><a href="[[The psychology of money]]"><g transform="translate(2030.202191027966 920.3960524618401) rotate(0 139.5 13.5)"><text x="0" y="22" font-family="Helvetica, Segoe UI Emoji" font-size="20px" fill="#000000" text-anchor="start" style="white-space: pre;" direction="ltr">📍[[The psychology of money]]</text></g></a><g stroke-linecap="round" transform="translate(1973.7207118070457 869.8960524618401) rotate(0 210.4074266221788 67.66667175292969)"><path d="M420.81 67.67 C420.81 69.44, 420.6 71.21, 420.17 72.98 C419.73 74.74, 419.09 76.5, 418.22 78.25 C417.36 80, 416.29 81.74, 415 83.46 C413.72 85.18, 412.22 86.89, 410.52 88.58 C408.82 90.26, 406.9 91.93, 404.8 93.56 C402.69 95.2, 400.38 96.81, 397.88 98.39 C395.38 99.96, 392.68 101.51, 389.81 103.02 C386.93 104.53, 383.87 106.01, 380.63 107.44 C377.4 108.87, 373.98 110.27, 370.4 111.61 C366.83 112.96, 363.08 114.26, 359.19 115.51 C355.3 116.77, 351.24 117.97, 347.06 119.12 C342.87 120.27, 338.53 121.37, 334.08 122.41 C329.63 123.45, 325.04 124.44, 320.35 125.36 C315.65 126.29, 310.83 127.15, 305.93 127.96 C301.03 128.76, 296.01 129.51, 290.93 130.18 C285.84 130.86, 280.66 131.47, 275.43 132.02 C270.19 132.57, 264.88 133.05, 259.53 133.46 C254.18 133.88, 248.76 134.22, 243.32 134.5 C237.89 134.78, 232.4 134.99, 226.92 135.12 C221.43 135.26, 215.91 135.33, 210.41 135.33 C204.9 135.33, 199.38 135.26, 193.9 135.12 C188.41 134.99, 182.93 134.78, 177.49 134.5 C172.06 134.22, 166.64 133.88, 161.29 133.46 C155.94 133.05, 150.62 132.57, 145.39 132.02 C140.15 131.47, 134.97 130.86, 129.89 130.18 C124.8 129.51, 119.79 128.76, 114.88 127.96 C109.98 127.15, 105.16 126.29, 100.47 125.36 C95.78 124.44, 91.18 123.45, 86.73 122.41 C82.28 121.37, 77.94 120.27, 73.76 119.12 C69.57 117.97, 65.52 116.77, 61.63 115.51 C57.74 114.26, 53.99 112.96, 50.41 111.61 C46.84 110.27, 43.42 108.87, 40.18 107.44 C36.95 106.01, 33.88 104.53, 31.01 103.02 C28.13 101.51, 25.43 99.96, 22.93 98.39 C20.43 96.81, 18.12 95.2, 16.02 93.56 C13.91 91.93, 12 90.26, 10.3 88.58 C8.6 86.89, 7.1 85.18, 5.81 83.46 C4.53 81.74, 3.45 80, 2.59 78.25 C1.73 76.5, 1.08 74.74, 0.65 72.98 C0.22 71.21, 0 69.44, 0 67.67 C0 65.9, 0.22 64.12, 0.65 62.36 C1.08 60.59, 1.73 58.83, 2.59 57.08 C3.45 55.33, 4.53 53.59, 5.81 51.87 C7.1 50.15, 8.6 48.44, 10.3 46.76 C12 45.07, 13.91 43.41, 16.02 41.77 C18.12 40.14, 20.43 38.52, 22.93 36.95 C25.43 35.37, 28.13 33.82, 31.01 32.31 C33.88 30.8, 36.95 29.32, 40.18 27.89 C43.42 26.46, 46.84 25.07, 50.41 23.72 C53.99 22.38, 57.74 21.07, 61.63 19.82 C65.52 18.57, 69.57 17.36, 73.76 16.21 C77.94 15.06, 82.28 13.96, 86.73 12.92 C91.18 11.88, 95.78 10.9, 100.47 9.97 C105.16 9.05, 109.98 8.18, 114.88 7.38 C119.79 6.57, 124.8 5.83, 129.89 5.15 C134.97 4.47, 140.15 3.86, 145.39 3.31 C150.62 2.76, 155.94 2.28, 161.29 1.87 C166.64 1.46, 172.06 1.11, 177.49 0.83 C182.93 0.56, 188.41 0.35, 193.9 0.21 C199.38 0.07, 204.9 0, 210.41 0 C215.91 0, 221.43 0.07, 226.92 0.21 C232.4 0.35, 237.89 0.56, 243.32 0.83 C248.76 1.11, 254.18 1.46, 259.53 1.87 C264.88 2.28, 270.19 2.76, 275.43 3.31 C280.66 3.86, 285.84 4.47, 290.93 5.15 C296.01 5.83, 301.03 6.57, 305.93 7.38 C310.83 8.18, 315.65 9.05, 320.35 9.97 C325.04 10.9, 329.63 11.88, 334.08 12.92 C338.53 13.96, 342.87 15.06, 347.06 16.21 C351.24 17.36, 355.3 18.57, 359.19 19.82 C363.08 21.07, 366.83 22.38, 370.4 23.72 C373.98 25.07, 377.4 26.46, 380.63 27.89 C383.87 29.32, 386.93 30.8, 389.81 32.31 C392.68 33.82, 395.38 35.37, 397.88 36.95 C400.38 38.52, 402.69 40.14, 404.8 41.77 C406.9 43.41, 408.82 45.07, 410.52 46.76 C412.22 48.44, 413.72 50.15, 415 51.87 C416.29 53.59, 417.36 55.33, 418.22 57.08 C419.09 58.83, 419.73 60.59, 420.17 62.36 C420.6 64.12, 420.81 65.9, 420.81 67.67" stroke="#000000" stroke-width="1" fill="none"/></g><g transform="translate(3372.4852812863664 988.1103577945688) rotate(0 216.5 11.5)"><text x="0" y="18" font-family="Helvetica, Segoe UI Emoji" font-size="20px" fill="#d9480f" text-anchor="start" style="white-space: pre;" direction="ltr">Financial succes is a soft skill that can be taught.</text></g><g transform="translate(3291.4852812863664 1039.1103577945687) rotate(0 154 11.5)"><text x="0" y="18" font-family="Helvetica, Segoe UI Emoji" font-size="20px" fill="#d9480f" text-anchor="start" style="white-space: pre;" direction="ltr">Financial succes is also about luck</text></g><g transform="translate(2715.630912417457 958.3333260672428) rotate(0 69.5 11.5)"><text x="0" y="18" font-family="Helvetica, Segoe UI Emoji" font-size="20px" fill="#d9480f" text-anchor="start" style="white-space: pre;" direction="ltr">No one is crazy</text></g><g transform="translate(3253.726092383974 910.1905125209257) rotate(0 312.5 11.5)"><text x="0" y="18" font-family="Helvetica, Segoe UI Emoji" font-size="20px" fill="#d9480f" text-anchor="start" style="white-space: pre;" direction="ltr">We don't have experience in finance, it's been there for 25 to 50 years.</text></g><g transform="translate(3214.678502400715 1100.1905125209257) rotate(0 357 11.5)"><text x="0" y="18" font-family="Helvetica, Segoe UI Emoji" font-size="20px" fill="#d9480f" text-anchor="start" style="white-space: pre;" direction="ltr">The moment you are born influence a lot your financial action and understanding</text></g><g transform="translate(2757.0594838460283 809.2856924874436) rotate(0 59.5 11.5)"><text x="0" y="18" font-family="Helvetica, Segoe UI Emoji" font-size="20px" fill="#a61e4d" text-anchor="start" style="white-space: pre;" direction="ltr">Luck and risk</text></g><g transform="translate(2583.726179577055 721.1904253278454) rotate(0 63.5 11.5)"><text x="0" y="18" font-family="Helvetica, Segoe UI Emoji" font-size="20px" fill="#000000" text-anchor="start" style="white-space: pre;" direction="ltr">Never enough</text></g><g transform="translate(2464.202340988885 619.7619083949492) rotate(0 122.49999999999997 11.5)"><text x="0" y="18" font-family="Helvetica, Segoe UI Emoji" font-size="20px" fill="#0b7285" text-anchor="start" style="white-space: pre;" direction="ltr">Confounding Compounding</text></g><g transform="translate(2192.059562319801 667.4761832100997) rotate(0 159 11.5)"><text x="0" y="18" font-family="Helvetica, Segoe UI Emoji" font-size="20px" fill="#e67700" text-anchor="start" style="white-space: pre;" direction="ltr">Getting Wealthy vs Staying Wealthy</text></g><g transform="translate(2053.964260282971 707.8571646554122) rotate(0 55.5 11.5)"><text x="0" y="18" font-family="Helvetica, Segoe UI Emoji" font-size="20px" fill="#1864ab" text-anchor="start" style="white-space: pre;" direction="ltr">Tail, You win</text></g><g transform="translate(1917.7737259637743 764.9999346051891) rotate(0 40.5 11.5)"><text x="0" y="18" font-family="Helvetica, Segoe UI Emoji" font-size="20px" fill="#c92a2a" text-anchor="start" style="white-space: pre;" direction="ltr">Freedom</text></g><g transform="translate(1701.5833224341982 835.0000217982695) rotate(0 106 11.5)"><text x="0" y="18" font-family="Helvetica, Segoe UI Emoji" font-size="20px" fill="#5c940d" text-anchor="start" style="white-space: pre;" direction="ltr">Man in the Car Paradox</text></g><g transform="translate(1602.0594838460288 924.0476117815283) rotate(0 127.5 11.5)"><text x="0" y="18" font-family="Helvetica, Segoe UI Emoji" font-size="20px" fill="#364fc7" text-anchor="start" style="white-space: pre;" direction="ltr">Wealth is what you don't see</text></g><g transform="translate(1737.0594729468935 1021.3094983782081) rotate(0 56 11.5)"><text x="0" y="18" font-family="Helvetica, Segoe UI Emoji" font-size="20px" fill="#495057" text-anchor="start" style="white-space: pre;" direction="ltr">Save Money</text></g><g transform="translate(1767.7738131568544 1101.6666303362158) rotate(0 102 11.5)"><text x="0" y="18" font-family="Helvetica, Segoe UI Emoji" font-size="20px" fill="#2b8a3e" text-anchor="start" style="white-space: pre;" direction="ltr">Reasonable &gt; Rational</text></g><g transform="translate(1805.6307598295666 1293.0952181134899) rotate(0 43.5 11.5)"><text x="0" y="18" font-family="Helvetica, Segoe UI Emoji" font-size="20px" fill="#5f3dc4" text-anchor="start" style="white-space: pre;" direction="ltr">Surprise !</text></g><g transform="translate(2002.2976680937268 1343.0952344621924) rotate(0 65.5 11.5)"><text x="0" y="18" font-family="Helvetica, Segoe UI Emoji" font-size="20px" fill="#343a40" text-anchor="start" style="white-space: pre;" direction="ltr">Room for error</text></g><g transform="translate(2221.1070956275576 1368.6905234200608) rotate(0 61.5 11.5)"><text x="0" y="18" font-family="Helvetica, Segoe UI Emoji" font-size="20px" fill="#087f5b" text-anchor="start" style="white-space: pre;" direction="ltr">You'll Change</text></g><g transform="translate(2364.8504047696547 1311.7195849948455) rotate(0 125.50000000000003 11.5)"><text x="0" y="18" font-family="Helvetica, Segoe UI Emoji" font-size="20px" fill="#862e9c" text-anchor="start" style="white-space: pre;" direction="ltr">The seduction of Pessimism</text></g><g transform="translate(2580.392865619962 1235.5820198664585) rotate(0 136.5 11.5)"><text x="0" y="18" font-family="Helvetica, Segoe UI Emoji" font-size="20px" fill="#364fc7" text-anchor="start" style="white-space: pre;" direction="ltr">When you will believe anythink</text></g><g transform="translate(2921.199810936337 1159.5106912037677) rotate(0 51 11.500000000000014)"><text x="0" y="18" font-family="Helvetica, Segoe UI Emoji" font-size="20px" fill="#000000" text-anchor="start" style="white-space: pre;" direction="ltr">All together</text></g><g stroke-linecap="round"><g transform="translate(2862.0594838460283 965.9047546386713) rotate(0 192.3809814453124 -19.523794991629472)"><path d="M0 0 C64.13 -6.51, 320.63 -32.54, 384.76 -39.05 M0 0 C64.13 -6.51, 320.63 -32.54, 384.76 -39.05" stroke="#d9480f" stroke-width="1" fill="none"/></g><g transform="translate(2862.0594838460283 965.9047546386713) rotate(0 192.3809814453124 -19.523794991629472)"><path d="M357.75 -25.99 C365.49 -29.73, 373.22 -33.47, 384.76 -39.05 M357.75 -25.99 C368.55 -31.21, 379.35 -36.43, 384.76 -39.05" stroke="#d9480f" stroke-width="1" fill="none"/></g><g transform="translate(2862.0594838460283 965.9047546386713) rotate(0 192.3809814453124 -19.523794991629472)"><path d="M355.68 -46.41 C364.01 -44.3, 372.34 -42.19, 384.76 -39.05 M355.68 -46.41 C367.31 -43.47, 378.93 -40.52, 384.76 -39.05" stroke="#d9480f" stroke-width="1" fill="none"/></g></g><g stroke-linecap="round"><g transform="translate(2855.3928753080822 980.1904689243856) rotate(0 254.76187569754467 12.857142857142861)"><path d="M0 0 C84.92 4.29, 424.6 21.43, 509.52 25.71 M0 0 C84.92 4.29, 424.6 21.43, 509.52 25.71" stroke="#d9480f" stroke-width="1" fill="none"/></g><g transform="translate(2855.3928753080822 980.1904689243856) rotate(0 254.76187569754467 12.857142857142861)"><path d="M480.85 34.54 C491.08 31.39, 501.3 28.24, 509.52 25.71 M480.85 34.54 C491.25 31.34, 501.66 28.14, 509.52 25.71" stroke="#d9480f" stroke-width="1" fill="none"/></g><g transform="translate(2855.3928753080822 980.1904689243856) rotate(0 254.76187569754467 12.857142857142861)"><path d="M481.89 14.05 C491.74 18.21, 501.6 22.37, 509.52 25.71 M481.89 14.05 C491.91 18.28, 501.94 22.51, 509.52 25.71" stroke="#d9480f" stroke-width="1" fill="none"/></g></g><g stroke-linecap="round"><g transform="translate(2860.1547510056266 983.0476117815285) rotate(0 210.47620500837064 34.285714285714306)"><path d="M0 0 C70.16 11.43, 350.79 57.14, 420.95 68.57 M0 0 C70.16 11.43, 350.79 57.14, 420.95 68.57" stroke="#d9480f" stroke-width="1" fill="none"/></g><g transform="translate(2860.1547510056266 983.0476117815285) rotate(0 210.47620500837064 34.285714285714306)"><path d="M391.48 74.17 C399.28 72.69, 407.08 71.21, 420.95 68.57 M391.48 74.17 C397.95 72.94, 404.42 71.71, 420.95 68.57" stroke="#d9480f" stroke-width="1" fill="none"/></g><g transform="translate(2860.1547510056266 983.0476117815285) rotate(0 210.47620500837064 34.285714285714306)"><path d="M394.78 53.91 C401.7 57.79, 408.63 61.67, 420.95 68.57 M394.78 53.91 C400.53 57.13, 406.27 60.35, 420.95 68.57" stroke="#d9480f" stroke-width="1" fill="none"/></g></g><g stroke-linecap="round"><g transform="translate(2855.3928753080822 984.9523882184704) rotate(0 174.76187569754467 60.47618321010043)"><path d="M0 0 C58.25 20.16, 291.27 100.79, 349.52 120.95 M0 0 C58.25 20.16, 291.27 100.79, 349.52 120.95" stroke="#d9480f" stroke-width="1" fill="none"/></g><g transform="translate(2855.3928753080822 984.9523882184704) rotate(0 174.76187569754467 60.47618321010043)"><path d="M319.53 121.43 C327.29 121.31, 335.06 121.18, 349.52 120.95 M319.53 121.43 C327.38 121.3, 335.22 121.18, 349.52 120.95" stroke="#d9480f" stroke-width="1" fill="none"/></g><g transform="translate(2855.3928753080822 984.9523882184704) rotate(0 174.76187569754467 60.47618321010043)"><path d="M326.24 102.04 C332.27 106.93, 338.29 111.83, 349.52 120.95 M326.24 102.04 C332.33 106.99, 338.42 111.93, 349.52 120.95" stroke="#d9480f" stroke-width="1" fill="none"/></g></g><g transform="translate(2938.0118502662294 850.9259105864021) rotate(0 146.5 11.5)"><text x="0" y="18" font-family="Helvetica, Segoe UI Emoji" font-size="20px" fill="#a61e4d" text-anchor="start" style="white-space: pre;" direction="ltr">Goes together (story of Bill Gate)</text></g><g transform="translate(2963.7262231735954 745.4286368233811) rotate(0 280.5 11.5)"><text x="0" y="18" font-family="Helvetica, Segoe UI Emoji" font-size="20px" fill="#a61e4d" text-anchor="start" style="white-space: pre;" direction="ltr">The hardest financial skill is getting the goalpost to stop moving</text></g><g transform="translate(3658.011850266229 580.2381025041847) rotate(0 174.5 11.5)"><text x="0" y="18" font-family="Helvetica, Segoe UI Emoji" font-size="20px" fill="#a61e4d" text-anchor="start" style="white-space: pre;" direction="ltr">the 100 Milionaire who end up in prison</text></g><g transform="translate(3704.202297392346 674.4761832100999) rotate(0 196.4999999999999 11.5)"><text x="0" y="18" font-family="Helvetica, Segoe UI Emoji" font-size="20px" fill="#a61e4d" text-anchor="start" style="white-space: pre;" direction="ltr">Know when you have enough for your need.</text></g><g stroke-linecap="round"><g transform="translate(2888.7261795770555 821.5599427241931) rotate(0 34.28909483937406 -26.418749180216345)"><path d="M0 0 C11.43 -8.81, 57.15 -44.03, 68.58 -52.84 M0 0 C11.43 -8.81, 57.15 -44.03, 68.58 -52.84" stroke="#a61e4d" stroke-width="1" fill="none"/></g><g transform="translate(2888.7261795770555 821.5599427241931) rotate(0 34.28909483937406 -26.418749180216345)"><path d="M52.51 -27.5 C56.3 -33.48, 60.09 -39.46, 68.58 -52.84 M52.51 -27.5 C58.9 -37.58, 65.3 -47.66, 68.58 -52.84" stroke="#a61e4d" stroke-width="1" fill="none"/></g><g transform="translate(2888.7261795770555 821.5599427241931) rotate(0 34.28909483937406 -26.418749180216345)"><path d="M39.98 -43.76 C46.73 -45.9, 53.48 -48.04, 68.58 -52.84 M39.98 -43.76 C51.36 -47.37, 62.74 -50.98, 68.58 -52.84" stroke="#a61e4d" stroke-width="1" fill="none"/></g></g><g stroke-linecap="round"><g transform="translate(2883.9296156601094 833.0249595210813) rotate(0 24.779241605515267 15.908867455131105)"><path d="M0 0 C8.26 5.3, 41.3 26.51, 49.56 31.82 M0 0 C8.26 5.3, 41.3 26.51, 49.56 31.82" stroke="#a61e4d" stroke-width="1" fill="none"/></g><g transform="translate(2883.9296156601094 833.0249595210813) rotate(0 24.779241605515267 15.908867455131105)"><path d="M20.83 25.34 C28.82 27.14, 36.81 28.95, 49.56 31.82 M20.83 25.34 C29.38 27.27, 37.92 29.19, 49.56 31.82" stroke="#a61e4d" stroke-width="1" fill="none"/></g><g transform="translate(2883.9296156601094 833.0249595210813) rotate(0 24.779241605515267 15.908867455131105)"><path d="M31.71 8.39 C36.68 14.91, 41.64 21.43, 49.56 31.82 M31.71 8.39 C37.02 15.36, 42.33 22.33, 49.56 31.82" stroke="#a61e4d" stroke-width="1" fill="none"/></g></g><g stroke-linecap="round"><g transform="translate(3534.440508887881 752.4496562542968) rotate(0 58.09522356305797 -77.0800168302724)"><path d="M0 0 C19.37 -25.69, 96.83 -128.47, 116.19 -154.16 M0 0 C19.37 -25.69, 96.83 -128.47, 116.19 -154.16" stroke="#a61e4d" stroke-width="1" fill="none"/></g><g transform="translate(3534.440508887881 752.4496562542968) rotate(0 58.09522356305797 -77.0800168302724)"><path d="M107.42 -125.47 C109.44 -132.09, 111.46 -138.71, 116.19 -154.16 M107.42 -125.47 C110.32 -134.97, 113.23 -144.47, 116.19 -154.16" stroke="#a61e4d" stroke-width="1" fill="none"/></g><g transform="translate(3534.440508887881 752.4496562542968) rotate(0 58.09522356305797 -77.0800168302724)"><path d="M91.03 -137.82 C96.83 -141.59, 102.64 -145.36, 116.19 -154.16 M91.03 -137.82 C99.36 -143.23, 107.69 -148.64, 116.19 -154.16" stroke="#a61e4d" stroke-width="1" fill="none"/></g></g><g stroke-linecap="round"><g transform="translate(3537.574112913704 762.381003243582) rotate(0 224.55271617049925 -26.61910574776786)"><path d="M0 0 C74.85 -8.87, 374.25 -44.37, 449.11 -53.24 M0 0 C74.85 -8.87, 374.25 -44.37, 449.11 -53.24" stroke="#a61e4d" stroke-width="1" fill="none"/></g><g transform="translate(3537.574112913704 762.381003243582) rotate(0 224.55271617049925 -26.61910574776786)"><path d="M422.32 -39.73 C431.09 -44.15, 439.87 -48.58, 449.11 -53.24 M422.32 -39.73 C428.55 -42.87, 434.78 -46.01, 449.11 -53.24" stroke="#a61e4d" stroke-width="1" fill="none"/></g><g transform="translate(3537.574112913704 762.381003243582) rotate(0 224.55271617049925 -26.61910574776786)"><path d="M419.9 -60.11 C429.47 -57.86, 439.03 -55.61, 449.11 -53.24 M419.9 -60.11 C426.69 -58.51, 433.49 -56.91, 449.11 -53.24" stroke="#a61e4d" stroke-width="1" fill="none"/></g></g><g transform="translate(2663.2499745686846 510.47616141182993) rotate(0 189.5 11.5)"><text x="0" y="18" font-family="Helvetica, Segoe UI Emoji" font-size="20px" fill="#0b7285" text-anchor="start" style="white-space: pre;" direction="ltr">compounding and time make a person rich</text></g><g stroke-linecap="round"><g transform="translate(2720.630956013997 736.380959647042) rotate(0 116.66665213448658 10)"><path d="M0 0 C38.89 3.33, 194.44 16.67, 233.33 20 M0 0 C38.89 3.33, 194.44 16.67, 233.33 20" stroke="#a61e4d" stroke-width="1" fill="none"/></g><g transform="translate(2720.630956013997 736.380959647042) rotate(0 116.66665213448658 10)"><path d="M204.37 27.82 C210.79 26.08, 217.2 24.35, 233.33 20 M204.37 27.82 C215.69 24.76, 227 21.71, 233.33 20" stroke="#a61e4d" stroke-width="1" fill="none"/></g><g transform="translate(2720.630956013997 736.380959647042) rotate(0 116.66665213448658 10)"><path d="M206.12 7.37 C212.15 10.17, 218.18 12.97, 233.33 20 M206.12 7.37 C216.75 12.3, 227.38 17.24, 233.33 20" stroke="#a61e4d" stroke-width="1" fill="none"/></g></g><g transform="translate(3108.2499745686846 420.23810250418484) rotate(0 61.5 11.5)"><text x="0" y="18" font-family="Helvetica, Segoe UI Emoji" font-size="20px" fill="#0b7285" text-anchor="start" style="white-space: pre;" direction="ltr">Warren Buffet</text></g><g stroke-linecap="round"><g transform="translate(2679.440508887881 616.3809596470419) rotate(0 13.80950927734375 -36.66667393275668)"><path d="M0 0 C4.6 -12.22, 23.02 -61.11, 27.62 -73.33 M0 0 C4.6 -12.22, 23.02 -61.11, 27.62 -73.33" stroke="#0b7285" stroke-width="1" fill="none"/></g><g transform="translate(2679.440508887881 616.3809596470419) rotate(0 13.80950927734375 -36.66667393275668)"><path d="M27.29 -43.34 C27.4 -53.52, 27.51 -63.71, 27.62 -73.33 M27.29 -43.34 C27.4 -53.37, 27.51 -63.41, 27.62 -73.33" stroke="#0b7285" stroke-width="1" fill="none"/></g><g transform="translate(2679.440508887881 616.3809596470419) rotate(0 13.80950927734375 -36.66667393275668)"><path d="M8.08 -50.57 C14.71 -58.3, 21.35 -66.03, 27.62 -73.33 M8.08 -50.57 C14.62 -58.19, 21.16 -65.8, 27.62 -73.33" stroke="#0b7285" stroke-width="1" fill="none"/></g></g><g stroke-linecap="round"><g transform="translate(2987.3785601981313 498.2857360839839) rotate(0 56.98334076507598 -29.507174166368884)"><path d="M0 0 C18.99 -9.84, 94.97 -49.18, 113.97 -59.01 M0 0 C18.99 -9.84, 94.97 -49.18, 113.97 -59.01" stroke="#0b7285" stroke-width="1" fill="none"/></g><g transform="translate(2987.3785601981313 498.2857360839839) rotate(0 56.98334076507598 -29.507174166368884)"><path d="M93.65 -36.94 C98.76 -42.49, 103.88 -48.05, 113.97 -59.01 M93.65 -36.94 C100.55 -44.44, 107.45 -51.94, 113.97 -59.01" stroke="#0b7285" stroke-width="1" fill="none"/></g><g transform="translate(2987.3785601981313 498.2857360839839) rotate(0 56.98334076507598 -29.507174166368884)"><path d="M84.21 -55.16 C91.7 -56.13, 99.19 -57.1, 113.97 -59.01 M84.21 -55.16 C94.32 -56.47, 104.43 -57.78, 113.97 -59.01" stroke="#0b7285" stroke-width="1" fill="none"/></g></g><g transform="translate(2958.2499745686846 594.7618974958141) rotate(0 282.5 11.5)"><text x="0" y="18" font-family="Helvetica, Segoe UI Emoji" font-size="20px" fill="#0b7285" text-anchor="start" style="white-space: pre;" direction="ltr">Combinaison of frugality and paranoia allow you to stay healthy.</text></g><g transform="translate(3051.5832788376583 658.5238167898988) rotate(0 234 11.5)"><text x="0" y="18" font-family="Helvetica, Segoe UI Emoji" font-size="20px" fill="#0b7285" text-anchor="start" style="white-space: pre;" direction="ltr">Kepping money is a skill, about humility and survival.</text></g><g stroke-linecap="round"><g transform="translate(2703.0119374593096 722.3333260672426) rotate(0 170 -22.85714285714289)"><path d="M0 0 C56.67 -7.62, 283.33 -38.1, 340 -45.71 M0 0 C56.67 -7.62, 283.33 -38.1, 340 -45.71" stroke="#0b7285" stroke-width="1" fill="none"/></g><g transform="translate(2703.0119374593096 722.3333260672426) rotate(0 170 -22.85714285714289)"><path d="M313.43 -31.79 C322.62 -36.61, 331.81 -41.42, 340 -45.71 M313.43 -31.79 C321.29 -35.91, 329.15 -40.03, 340 -45.71" stroke="#0b7285" stroke-width="1" fill="none"/></g><g transform="translate(2703.0119374593096 722.3333260672426) rotate(0 170 -22.85714285714289)"><path d="M310.69 -52.13 C320.83 -49.91, 330.97 -47.69, 340 -45.71 M310.69 -52.13 C319.36 -50.23, 328.03 -48.33, 340 -45.71" stroke="#0b7285" stroke-width="1" fill="none"/></g></g><g stroke-linecap="round"><g transform="translate(2712.5356888543993 726.1428789411266) rotate(0 117.14285714285711 -55.23810250418529)"><path d="M0 0 C39.05 -18.41, 195.24 -92.06, 234.29 -110.48 M0 0 C39.05 -18.41, 195.24 -92.06, 234.29 -110.48" stroke="#0b7285" stroke-width="1" fill="none"/></g><g transform="translate(2712.5356888543993 726.1428789411266) rotate(0 117.14285714285711 -55.23810250418529)"><path d="M213.16 -89.17 C217.97 -94.02, 222.77 -98.86, 234.29 -110.48 M213.16 -89.17 C220.63 -96.7, 228.1 -104.24, 234.29 -110.48" stroke="#0b7285" stroke-width="1" fill="none"/></g><g transform="translate(2712.5356888543993 726.1428789411266) rotate(0 117.14285714285711 -55.23810250418529)"><path d="M204.41 -107.73 C211.2 -108.36, 217.99 -108.98, 234.29 -110.48 M204.41 -107.73 C214.97 -108.7, 225.53 -109.67, 234.29 -110.48" stroke="#0b7285" stroke-width="1" fill="none"/></g></g><g transform="translate(2261.0118793305896 543.333326067243) rotate(0 100 11.5)"><text x="0" y="18" font-family="Helvetica, Segoe UI Emoji" font-size="20px" fill="#e67700" text-anchor="start" style="white-space: pre;" direction="ltr">Short term paranoia ...</text></g><g transform="translate(2311.48804074242 419.90475463867153) rotate(0 112.5 11.5)"><text x="0" y="18" font-family="Helvetica, Segoe UI Emoji" font-size="20px" fill="#e67700" text-anchor="start" style="white-space: pre;" direction="ltr">... to keep you alive for ...</text></g><g transform="translate(2343.9642021542504 330.57145036969837) rotate(0 99.5 11.5)"><text x="0" y="18" font-family="Helvetica, Segoe UI Emoji" font-size="20px" fill="#e67700" text-anchor="start" style="white-space: pre;" direction="ltr">... Long term optimism</text></g><g stroke-linecap="round"><g transform="translate(2385.0118793305896 659.0000130789617) rotate(0 -10.6666259765625 -44)"><path d="M0 0 C-3.56 -14.67, -17.78 -73.33, -21.33 -88 M0 0 C-3.56 -14.67, -17.78 -73.33, -21.33 -88" stroke="#e67700" stroke-width="1" fill="none"/></g><g transform="translate(2385.0118793305896 659.0000130789617) rotate(0 -10.6666259765625 -44)"><path d="M-4.72 -63.02 C-10.18 -71.24, -15.65 -79.45, -21.33 -88 M-4.72 -63.02 C-10.11 -71.12, -15.5 -79.23, -21.33 -88" stroke="#e67700" stroke-width="1" fill="none"/></g><g transform="translate(2385.0118793305896 659.0000130789617) rotate(0 -10.6666259765625 -44)"><path d="M-24.66 -58.19 C-23.57 -67.99, -22.47 -77.8, -21.33 -88 M-24.66 -58.19 C-23.58 -67.86, -22.5 -77.53, -21.33 -88" stroke="#e67700" stroke-width="1" fill="none"/></g></g><g stroke-linecap="round"><g transform="translate(2380.9612080177053 541.6667000906805) rotate(0 10.513650863317935 -44.38097272600447)"><path d="M0 0 C3.5 -14.79, 17.52 -73.97, 21.03 -88.76 M0 0 C3.5 -14.79, 17.52 -73.97, 21.03 -88.76" stroke="#e67700" stroke-width="1" fill="none"/></g><g transform="translate(2380.9612080177053 541.6667000906805) rotate(0 10.513650863317935 -44.38097272600447)"><path d="M24.51 -58.97 C23.64 -66.39, 22.78 -73.82, 21.03 -88.76 M24.51 -58.97 C23.4 -68.5, 22.28 -78.03, 21.03 -88.76" stroke="#e67700" stroke-width="1" fill="none"/></g><g transform="translate(2380.9612080177053 541.6667000906805) rotate(0 10.513650863317935 -44.38097272600447)"><path d="M4.54 -63.7 C8.65 -69.94, 12.76 -76.19, 21.03 -88.76 M4.54 -63.7 C9.82 -71.71, 15.09 -79.73, 21.03 -88.76" stroke="#e67700" stroke-width="1" fill="none"/></g></g><g stroke-linecap="round"><g transform="translate(2413.347601970611 412.90475463867153) rotate(0 3.804266273207986 -27.333308628627208)"><path d="M0 0 C1.27 -9.11, 6.34 -45.56, 7.61 -54.67 M0 0 C1.27 -9.11, 6.34 -45.56, 7.61 -54.67" stroke="#e67700" stroke-width="1" fill="none"/></g><g transform="translate(2413.347601970611 412.90475463867153) rotate(0 3.804266273207986 -27.333308628627208)"><path d="M13.38 -27.68 C11.65 -35.76, 9.92 -43.84, 7.61 -54.67 M13.38 -27.68 C11.78 -35.16, 10.18 -42.64, 7.61 -54.67" stroke="#e67700" stroke-width="1" fill="none"/></g><g transform="translate(2413.347601970611 412.90475463867153) rotate(0 3.804266273207986 -27.333308628627208)"><path d="M-5.31 -30.28 C-1.45 -37.58, 2.42 -44.88, 7.61 -54.67 M-5.31 -30.28 C-1.73 -37.04, 1.85 -43.8, 7.61 -54.67" stroke="#e67700" stroke-width="1" fill="none"/></g></g><g transform="translate(2010.535717918759 570.7618974958144) rotate(0 108.5 22.5)"><text x="0" y="18.5" font-family="Helvetica, Segoe UI Emoji" font-size="20px" fill="#1864ab" text-anchor="start" style="white-space: pre;" direction="ltr">Most of the stocks you </text><text x="0" y="41" font-family="Helvetica, Segoe UI Emoji" font-size="20px" fill="#1864ab" text-anchor="start" style="white-space: pre;" direction="ltr">buy don't make monney.</text></g><g stroke-linecap="round"><g transform="translate(2097.044752886455 699.2857360839839) rotate(0 4.492762529908241 -38.57145036969865)"><path d="M0 0 C1.5 -12.86, 7.49 -64.29, 8.99 -77.14 M0 0 C1.5 -12.86, 7.49 -64.29, 8.99 -77.14" stroke="#1864ab" stroke-width="1" fill="none"/></g><g transform="translate(2097.044752886455 699.2857360839839) rotate(0 4.492762529908241 -38.57145036969865)"><path d="M15.92 -47.95 C13.85 -56.66, 11.78 -65.36, 8.99 -77.14 M15.92 -47.95 C13.34 -58.82, 10.76 -69.69, 8.99 -77.14" stroke="#1864ab" stroke-width="1" fill="none"/></g><g transform="translate(2097.044752886455 699.2857360839839) rotate(0 4.492762529908241 -38.57145036969865)"><path d="M-4.47 -50.33 C-0.46 -58.32, 3.55 -66.31, 8.99 -77.14 M-4.47 -50.33 C0.54 -60.31, 5.55 -70.3, 8.99 -77.14" stroke="#1864ab" stroke-width="1" fill="none"/></g></g><g transform="translate(2166.96420215425 445.0476117815286) rotate(0 54.5 22.5)"><text x="0" y="18.5" font-family="Helvetica, Segoe UI Emoji" font-size="20px" fill="#1864ab" text-anchor="start" style="white-space: pre;" direction="ltr">few are very</text><text x="0" y="41" font-family="Helvetica, Segoe UI Emoji" font-size="20px" fill="#1864ab" text-anchor="start" style="white-space: pre;" direction="ltr">lucrative</text></g><g stroke-linecap="round"><g transform="translate(2185.753338608367 565.9523882184706) rotate(0 6.376642571643231 -32.857121058872764)"><path d="M0 0 C2.13 -10.95, 10.63 -54.76, 12.75 -65.71 M0 0 C2.13 -10.95, 10.63 -54.76, 12.75 -65.71" stroke="#1864ab" stroke-width="1" fill="none"/></g><g transform="translate(2185.753338608367 565.9523882184706) rotate(0 6.376642571643231 -32.857121058872764)"><path d="M17.46 -36.08 C16.08 -44.78, 14.7 -53.47, 12.75 -65.71 M17.46 -36.08 C15.61 -47.72, 13.76 -59.35, 12.75 -65.71" stroke="#1864ab" stroke-width="1" fill="none"/></g><g transform="translate(2185.753338608367 565.9523882184706) rotate(0 6.376642571643231 -32.857121058872764)"><path d="M-2.69 -39.99 C1.84 -47.54, 6.37 -55.08, 12.75 -65.71 M-2.69 -39.99 C3.37 -50.09, 9.44 -60.19, 12.75 -65.71" stroke="#1864ab" stroke-width="1" fill="none"/></g></g><g transform="translate(2057.4404507591607 375.04761178152864) rotate(0 73.5 11.5)"><text x="0" y="18" font-family="Helvetica, Segoe UI Emoji" font-size="20px" fill="#1864ab" text-anchor="start" style="white-space: pre;" direction="ltr">need to diversify</text></g><g stroke-linecap="round"><g transform="translate(2161.9319622033113 560.2381025041848) rotate(0 -28.00783930596723 -78.57142857142856)"><path d="M0 0 C-9.34 -26.19, -46.68 -130.95, -56.02 -157.14 M0 0 C-9.34 -26.19, -46.68 -130.95, -56.02 -157.14" stroke="#1864ab" stroke-width="1" fill="none"/></g><g transform="translate(2161.9319622033113 560.2381025041848) rotate(0 -28.00783930596723 -78.57142857142856)"><path d="M-36.89 -134.03 C-40.99 -138.99, -45.09 -143.94, -56.02 -157.14 M-36.89 -134.03 C-42.85 -141.24, -48.82 -148.45, -56.02 -157.14" stroke="#1864ab" stroke-width="1" fill="none"/></g><g transform="translate(2161.9319622033113 560.2381025041848) rotate(0 -28.00783930596723 -78.57142857142856)"><path d="M-56.22 -127.14 C-56.17 -133.57, -56.13 -140, -56.02 -157.14 M-56.22 -127.14 C-56.15 -136.5, -56.09 -145.85, -56.02 -157.14" stroke="#1864ab" stroke-width="1" fill="none"/></g></g><g transform="translate(1941.2499600365045 231.71428571428532) rotate(0 222 22.5)"><text x="0" y="18.5" font-family="Helvetica, Segoe UI Emoji" font-size="20px" fill="#1864ab" text-anchor="start" style="white-space: pre;" direction="ltr">Napoleon definition of genius is the one doing the </text><text x="0" y="41" font-family="Helvetica, Segoe UI Emoji" font-size="20px" fill="#1864ab" text-anchor="start" style="white-space: pre;" direction="ltr">normal thing when everyone else is going crazy.</text></g><g stroke-linecap="round"><g transform="translate(2056.4881279355004 705.238102504185) rotate(0 -38.286791241226474 -208.09524536132812)"><path d="M0 0 C-13.65 -30.79, -82.79 -115.4, -81.9 -184.76 C-81.02 -254.13, -9.21 -377.62, 5.33 -416.19 M0 0 C-13.65 -30.79, -82.79 -115.4, -81.9 -184.76 C-81.02 -254.13, -9.21 -377.62, 5.33 -416.19" stroke="#1864ab" stroke-width="1" fill="none"/></g><g transform="translate(2056.4881279355004 705.238102504185) rotate(0 -38.286791241226474 -208.09524536132812)"><path d="M2.74 -386.3 C3.61 -396.37, 4.48 -406.43, 5.33 -416.19 M2.74 -386.3 C3.52 -395.39, 4.31 -404.48, 5.33 -416.19" stroke="#1864ab" stroke-width="1" fill="none"/></g><g transform="translate(2056.4881279355004 705.238102504185) rotate(0 -38.286791241226474 -208.09524536132812)"><path d="M-15.87 -394.96 C-8.73 -402.11, -1.59 -409.26, 5.33 -416.19 M-15.87 -394.96 C-9.42 -401.42, -2.98 -407.87, 5.33 -416.19" stroke="#1864ab" stroke-width="1" fill="none"/></g></g><g transform="translate(2135.535717918759 111.90475463867153) rotate(0 383.5 22.5)"><text x="0" y="18.5" font-family="Helvetica, Segoe UI Emoji" font-size="20px" fill="#1864ab" text-anchor="start" style="white-space: pre;" direction="ltr">If you invest and never take your monney back during recession, you are more likely to</text><text x="0" y="41" font-family="Helvetica, Segoe UI Emoji" font-size="20px" fill="#1864ab" text-anchor="start" style="white-space: pre;" direction="ltr">make more monney by far than the one selling and buying again.</text></g><g transform="translate(1672.2023700532457 10) rotate(0 388 34)"><text x="0" y="18.666666666666668" font-family="Helvetica, Segoe UI Emoji" font-size="20px" fill="#1864ab" text-anchor="start" style="white-space: pre;" direction="ltr">"it is not whether you are right or wrong that's important, but how much money you</text><text x="0" y="41.333333333333336" font-family="Helvetica, Segoe UI Emoji" font-size="20px" fill="#1864ab" text-anchor="start" style="white-space: pre;" direction="ltr">make when you are right and how much money you make when you're wrong. " George</text><text x="0" y="64" font-family="Helvetica, Segoe UI Emoji" font-size="20px" fill="#1864ab" text-anchor="start" style="white-space: pre;" direction="ltr">Soros.</text></g><g stroke-linecap="round"><g transform="translate(2064.0888484111388 223.8095310756139) rotate(0 36.22529900156669 -31.904754638671875)"><path d="M0 0 C12.08 -10.63, 60.38 -53.17, 72.45 -63.81 M0 0 C12.08 -10.63, 60.38 -53.17, 72.45 -63.81" stroke="#1864ab" stroke-width="1" fill="none"/></g><g transform="translate(2064.0888484111388 223.8095310756139) rotate(0 36.22529900156669 -31.904754638671875)"><path d="M58.08 -37.48 C62.29 -45.2, 66.51 -52.93, 72.45 -63.81 M58.08 -37.48 C63.44 -47.31, 68.81 -57.14, 72.45 -63.81" stroke="#1864ab" stroke-width="1" fill="none"/></g><g transform="translate(2064.0888484111388 223.8095310756139) rotate(0 36.22529900156669 -31.904754638671875)"><path d="M44.51 -52.88 C52.71 -56.08, 60.91 -59.29, 72.45 -63.81 M44.51 -52.88 C54.94 -56.96, 65.37 -61.04, 72.45 -63.81" stroke="#1864ab" stroke-width="1" fill="none"/></g></g><g stroke-linecap="round"><g transform="translate(1999.4650194292406 224.76189749581476) rotate(0 -127.86215797583391 -66.19046892438615)"><path d="M0 0 C-42.62 -22.06, -213.1 -110.32, -255.72 -132.38 M0 0 C-42.62 -22.06, -213.1 -110.32, -255.72 -132.38" stroke="#1864ab" stroke-width="1" fill="none"/></g><g transform="translate(1999.4650194292406 224.76189749581476) rotate(0 -127.86215797583391 -66.19046892438615)"><path d="M-225.97 -128.53 C-236.14 -129.85, -246.31 -131.16, -255.72 -132.38 M-225.97 -128.53 C-234.65 -129.65, -243.32 -130.78, -255.72 -132.38" stroke="#1864ab" stroke-width="1" fill="none"/></g><g transform="translate(1999.4650194292406 224.76189749581476) rotate(0 -127.86215797583391 -66.19046892438615)"><path d="M-235.41 -110.31 C-242.35 -117.85, -249.3 -125.4, -255.72 -132.38 M-235.41 -110.31 C-241.33 -116.74, -247.25 -123.18, -255.72 -132.38" stroke="#1864ab" stroke-width="1" fill="none"/></g></g><g transform="translate(1341.9642893473308 685.7142639160159) rotate(0 243.5 11.5)"><text x="0" y="18" font-family="Helvetica, Segoe UI Emoji" font-size="20px" fill="#c92a2a" text-anchor="start" style="white-space: pre;" direction="ltr">controlling your time is the highest dividend money pay</text></g><g transform="translate(1317.2023264567058 570.9523882184711) rotate(0 191.5 22.5)"><text x="0" y="18.5" font-family="Helvetica, Segoe UI Emoji" font-size="20px" fill="#c92a2a" text-anchor="start" style="white-space: pre;" direction="ltr">advice from elders American for life, spend </text><text x="0" y="41" font-family="Helvetica, Segoe UI Emoji" font-size="20px" fill="#c92a2a" text-anchor="start" style="white-space: pre;" direction="ltr">quality time, time with friend and family.</text></g><g transform="translate(1381.9642457507907 503.8095092773439) rotate(0 161.5 11.5)"><text x="0" y="18" font-family="Helvetica, Segoe UI Emoji" font-size="20px" fill="#c92a2a" text-anchor="start" style="white-space: pre;" direction="ltr">find something bigger than your self.</text></g><g transform="translate(1248.6308978852771 428.0952453613283) rotate(0 328.5 11.5)"><text x="0" y="18" font-family="Helvetica, Segoe UI Emoji" font-size="20px" fill="#c92a2a" text-anchor="start" style="white-space: pre;" direction="ltr">The highest form of wealth is to wake up and say I can do whatever I want</text></g><g stroke-linecap="round"><g transform="translate(1915.3892479284675 764.332479811718) rotate(0 -47.6648457107692 -24.309086149580992)"><path d="M0 0 C-15.89 -8.1, -79.44 -40.52, -95.33 -48.62 M0 0 C-15.89 -8.1, -79.44 -40.52, -95.33 -48.62" stroke="#c92a2a" stroke-width="1" fill="none"/></g><g transform="translate(1915.3892479284675 764.332479811718) rotate(0 -47.6648457107692 -24.309086149580992)"><path d="M-65.55 -44.95 C-77.06 -46.37, -88.56 -47.78, -95.33 -48.62 M-65.55 -44.95 C-72.75 -45.84, -79.95 -46.72, -95.33 -48.62" stroke="#c92a2a" stroke-width="1" fill="none"/></g><g transform="translate(1915.3892479284675 764.332479811718) rotate(0 -47.6648457107692 -24.309086149580992)"><path d="M-74.88 -26.67 C-82.78 -35.15, -90.68 -43.63, -95.33 -48.62 M-74.88 -26.67 C-79.82 -31.97, -84.76 -37.28, -95.33 -48.62" stroke="#c92a2a" stroke-width="1" fill="none"/></g></g><g stroke-linecap="round"><g transform="translate(1952.4404507591612 763.3333260672434) rotate(0 -36.190447126116055 -152.38094874790738)"><path d="M0 0 C-12.06 -50.79, -60.32 -253.97, -72.38 -304.76 M0 0 C-12.06 -50.79, -60.32 -253.97, -72.38 -304.76" stroke="#c92a2a" stroke-width="1" fill="none"/></g><g transform="translate(1952.4404507591612 763.3333260672434) rotate(0 -36.190447126116055 -152.38094874790738)"><path d="M-55.88 -279.7 C-59.29 -284.88, -62.7 -290.06, -72.38 -304.76 M-55.88 -279.7 C-61.42 -288.12, -66.96 -296.54, -72.38 -304.76" stroke="#c92a2a" stroke-width="1" fill="none"/></g><g transform="translate(1952.4404507591612 763.3333260672434) rotate(0 -36.190447126116055 -152.38094874790738)"><path d="M-75.85 -274.96 C-75.13 -281.12, -74.42 -287.28, -72.38 -304.76 M-75.85 -274.96 C-74.68 -284.97, -73.52 -294.98, -72.38 -304.76" stroke="#c92a2a" stroke-width="1" fill="none"/></g></g><g stroke-linecap="round"><g transform="translate(1922.916699364072 756.6666739327568) rotate(0 -107.61906215122764 -83.33332606724329)"><path d="M0 0 C-10.32 -16.67, -26.03 -72.22, -61.9 -100 C-97.78 -127.78, -189.68 -155.56, -215.24 -166.67 M0 0 C-10.32 -16.67, -26.03 -72.22, -61.9 -100 C-97.78 -127.78, -189.68 -155.56, -215.24 -166.67" stroke="#c92a2a" stroke-width="1" fill="none"/></g><g transform="translate(1922.916699364072 756.6666739327568) rotate(0 -107.61906215122764 -83.33332606724329)"><path d="M-185.24 -166.41 C-196.94 -166.51, -208.64 -166.61, -215.24 -166.67 M-185.24 -166.41 C-196.86 -166.51, -208.48 -166.61, -215.24 -166.67" stroke="#c92a2a" stroke-width="1" fill="none"/></g><g transform="translate(1922.916699364072 756.6666739327568) rotate(0 -107.61906215122764 -83.33332606724329)"><path d="M-192.42 -147.19 C-201.32 -154.79, -210.22 -162.39, -215.24 -166.67 M-192.42 -147.19 C-201.26 -154.73, -210.09 -162.28, -215.24 -166.67" stroke="#c92a2a" stroke-width="1" fill="none"/></g></g><g stroke-linecap="round"><g transform="translate(1933.3928607759021 752.857164655413) rotate(0 -112.3809378487723 -117.18983704064405)"><path d="M0 0 C-10.32 -25.08, -24.44 -111.41, -61.9 -150.48 C-99.37 -189.54, -197.62 -220.4, -224.76 -234.38 M0 0 C-10.32 -25.08, -24.44 -111.41, -61.9 -150.48 C-99.37 -189.54, -197.62 -220.4, -224.76 -234.38" stroke="#c92a2a" stroke-width="1" fill="none"/></g><g transform="translate(1933.3928607759021 752.857164655413) rotate(0 -112.3809378487723 -117.18983704064405)"><path d="M-194.8 -232.87 C-202.14 -233.24, -209.48 -233.61, -224.76 -234.38 M-194.8 -232.87 C-204.02 -233.34, -213.24 -233.8, -224.76 -234.38" stroke="#c92a2a" stroke-width="1" fill="none"/></g><g transform="translate(1933.3928607759021 752.857164655413) rotate(0 -112.3809378487723 -117.18983704064405)"><path d="M-202.78 -213.97 C-208.16 -218.97, -213.55 -223.97, -224.76 -234.38 M-202.78 -213.97 C-209.54 -220.25, -216.31 -226.53, -224.76 -234.38" stroke="#c92a2a" stroke-width="1" fill="none"/></g></g><g transform="translate(1009.2976284935362 799.7142595563618) rotate(0 279 11.5)"><text x="0" y="18" font-family="Helvetica, Segoe UI Emoji" font-size="20px" fill="#5c940d" text-anchor="start" style="white-space: pre;" direction="ltr">no one is impressed with your possession as much as your are</text></g><g stroke-linecap="round"><g transform="translate(1690.5357179187595 856.0555155073719) rotate(0 -66.75394299596257 -12.623016193976099)"><path d="M0 0 C-22.25 -4.21, -111.26 -21.04, -133.51 -25.25 M0 0 C-22.25 -4.21, -111.26 -21.04, -133.51 -25.25" stroke="#5c940d" stroke-width="1" fill="none"/></g><g transform="translate(1690.5357179187595 856.0555155073719) rotate(0 -66.75394299596257 -12.623016193976099)"><path d="M-103.9 -30.09 C-114.81 -28.31, -125.71 -26.52, -133.51 -25.25 M-103.9 -30.09 C-114.75 -28.32, -125.6 -26.54, -133.51 -25.25" stroke="#5c940d" stroke-width="1" fill="none"/></g><g transform="translate(1690.5357179187595 856.0555155073719) rotate(0 -66.75394299596257 -12.623016193976099)"><path d="M-107.71 -9.93 C-117.21 -15.57, -126.72 -21.21, -133.51 -25.25 M-107.71 -9.93 C-117.16 -15.54, -126.62 -21.15, -133.51 -25.25" stroke="#5c940d" stroke-width="1" fill="none"/></g></g><g transform="translate(1227.9166412353516 881.9186435275608) rotate(0 177 11.5)"><text x="0" y="18" font-family="Helvetica, Segoe UI Emoji" font-size="20px" fill="#364fc7" text-anchor="start" style="white-space: pre;" direction="ltr">Wealth is hidden, It is income not spend</text></g><g stroke-linecap="round"><g transform="translate(1591.875 938.4186435275608) rotate(0 -18.33332061767578 -12.91666030883789)"><path d="M0 0 C-4.58 -1.81, -21.39 -6.53, -27.5 -10.83 C-33.61 -15.14, -35.14 -23.33, -36.67 -25.83 M0 0 C-4.58 -1.81, -21.39 -6.53, -27.5 -10.83 C-33.61 -15.14, -35.14 -23.33, -36.67 -25.83" stroke="#364fc7" stroke-width="1" fill="none"/></g><g transform="translate(1591.875 938.4186435275608) rotate(0 -18.33332061767578 -12.91666030883789)"><path d="M-30.67 -19.41 C-32.07 -20.9, -33.46 -22.4, -36.67 -25.83 M-30.67 -19.41 C-32.95 -21.85, -35.23 -24.3, -36.67 -25.83" stroke="#364fc7" stroke-width="1" fill="none"/></g><g transform="translate(1591.875 938.4186435275608) rotate(0 -18.33332061767578 -12.91666030883789)"><path d="M-36.2 -17.06 C-36.31 -19.1, -36.42 -21.14, -36.67 -25.83 M-36.2 -17.06 C-36.38 -20.4, -36.56 -23.74, -36.67 -25.83" stroke="#364fc7" stroke-width="1" fill="none"/></g></g><g transform="translate(988.5416412353516 1077.7519641452366) rotate(0 126.5 22.5)"><text x="0" y="18.5" font-family="Helvetica, Segoe UI Emoji" font-size="20px" fill="#495057" text-anchor="start" style="white-space: pre;" direction="ltr">building wealth have a lot to </text><text x="0" y="41" font-family="Helvetica, Segoe UI Emoji" font-size="20px" fill="#495057" text-anchor="start" style="white-space: pre;" direction="ltr">do with your saving rate</text></g><g stroke-linecap="round"><g transform="translate(1729.375 1043.9166464731413) rotate(0 -269.20513988715174 15.500979453723389)"><path d="M0 0 C-89.74 5.17, -448.68 25.83, -538.41 31 M0 0 C-89.74 5.17, -448.68 25.83, -538.41 31" stroke="#495057" stroke-width="1" fill="none"/></g><g transform="translate(1729.375 1043.9166464731413) rotate(0 -269.20513988715174 15.500979453723389)"><path d="M-510.86 19.14 C-519.1 22.69, -527.35 26.24, -538.41 31 M-510.86 19.14 C-521.32 23.64, -531.78 28.15, -538.41 31" stroke="#495057" stroke-width="1" fill="none"/></g><g transform="translate(1729.375 1043.9166464731413) rotate(0 -269.20513988715174 15.500979453723389)"><path d="M-509.68 39.63 C-518.28 37.04, -526.88 34.46, -538.41 31 M-509.68 39.63 C-520.59 36.35, -531.49 33.08, -538.41 31" stroke="#495057" stroke-width="1" fill="none"/></g></g><g transform="translate(1126.8749618530273 988.4186435275608) rotate(0 153.5 11.5)"><text x="0" y="18" font-family="Helvetica, Segoe UI Emoji" font-size="20px" fill="#495057" text-anchor="start" style="white-space: pre;" direction="ltr">You can safe just for saving's sake</text></g><g stroke-linecap="round"><g transform="translate(1724.375 1026.7519641452366) rotate(0 -140 -12.91666030883789)"><path d="M0 0 C-46.67 -4.31, -233.33 -21.53, -280 -25.83 M0 0 C-46.67 -4.31, -233.33 -21.53, -280 -25.83" stroke="#495057" stroke-width="1" fill="none"/></g><g transform="translate(1724.375 1026.7519641452366) rotate(0 -140 -12.91666030883789)"><path d="M-250.99 -33.46 C-260.76 -30.89, -270.53 -28.32, -280 -25.83 M-250.99 -33.46 C-258.81 -31.4, -266.64 -29.34, -280 -25.83" stroke="#495057" stroke-width="1" fill="none"/></g><g transform="translate(1724.375 1026.7519641452366) rotate(0 -140 -12.91666030883789)"><path d="M-252.87 -13.03 C-262.01 -17.34, -271.15 -21.66, -280 -25.83 M-252.87 -13.03 C-260.19 -16.48, -267.51 -19.94, -280 -25.83" stroke="#495057" stroke-width="1" fill="none"/></g></g><g transform="translate(1425.4167175292969 1188.210322909885) rotate(0 167.5 22.5)"><text x="0" y="18.5" font-family="Helvetica, Segoe UI Emoji" font-size="20px" fill="#2b8a3e" text-anchor="start" style="white-space: pre;" direction="ltr">aiming to be mostly reasonable works</text><text x="0" y="41" font-family="Helvetica, Segoe UI Emoji" font-size="20px" fill="#2b8a3e" text-anchor="start" style="white-space: pre;" direction="ltr">Better that trying to be coldly rational</text></g><g transform="translate(1221.2500381469727 1336.710322909885) rotate(0 108.5 22.5)"><text x="0" y="18.5" font-family="Helvetica, Segoe UI Emoji" font-size="20px" fill="#2b8a3e" text-anchor="start" style="white-space: pre;" direction="ltr">especially if lost, you will</text><text x="0" y="41" font-family="Helvetica, Segoe UI Emoji" font-size="20px" fill="#2b8a3e" text-anchor="start" style="white-space: pre;" direction="ltr">feel better</text></g><g stroke-linecap="round"><g transform="translate(1772.287236875044 1133.210322909885) rotate(0 -20.12711365373417 21.25)"><path d="M0 0 C-6.71 7.08, -33.55 35.42, -40.25 42.5 M0 0 C-6.71 7.08, -33.55 35.42, -40.25 42.5" stroke="#2b8a3e" stroke-width="1" fill="none"/></g><g transform="translate(1772.287236875044 1133.210322909885) rotate(0 -20.12711365373417 21.25)"><path d="M-28.61 15.65 C-31.56 22.46, -34.52 29.27, -40.25 42.5 M-28.61 15.65 C-31.4 22.07, -34.18 28.5, -40.25 42.5" stroke="#2b8a3e" stroke-width="1" fill="none"/></g><g transform="translate(1772.287236875044 1133.210322909885) rotate(0 -20.12711365373417 21.25)"><path d="M-14.07 29.42 C-20.71 32.73, -27.35 36.05, -40.25 42.5 M-14.07 29.42 C-20.34 32.55, -26.6 35.68, -40.25 42.5" stroke="#2b8a3e" stroke-width="1" fill="none"/></g></g><g stroke-linecap="round"><g transform="translate(1541.8585188267066 1248.210322909885) rotate(0 -52.569507988180476 38.33333969116211)"><path d="M0 0 C-17.52 12.78, -87.62 63.89, -105.14 76.67 M0 0 C-17.52 12.78, -87.62 63.89, -105.14 76.67" stroke="#2b8a3e" stroke-width="1" fill="none"/></g><g transform="translate(1541.8585188267066 1248.210322909885) rotate(0 -52.569507988180476 38.33333969116211)"><path d="M-88.41 51.77 C-92.64 58.06, -96.86 64.35, -105.14 76.67 M-88.41 51.77 C-94.81 61.29, -101.21 70.82, -105.14 76.67" stroke="#2b8a3e" stroke-width="1" fill="none"/></g><g transform="translate(1541.8585188267066 1248.210322909885) rotate(0 -52.569507988180476 38.33333969116211)"><path d="M-76.32 68.35 C-83.6 70.45, -90.89 72.55, -105.14 76.67 M-76.32 68.35 C-87.34 71.53, -98.37 74.71, -105.14 76.67" stroke="#2b8a3e" stroke-width="1" fill="none"/></g></g><g transform="translate(941.4582824707031 1284.8769641452366) rotate(0 204.5 11.5)"><text x="0" y="18" font-family="Helvetica, Segoe UI Emoji" font-size="20px" fill="#2b8a3e" text-anchor="start" style="white-space: pre;" direction="ltr">Invest reasonably, it will helps you emotionally</text></g><g stroke-linecap="round"><g transform="translate(1418.125 1242.3769641452366) rotate(0 -29.166641235351562 23.33333969116211)"><path d="M0 0 C-9.72 7.78, -48.61 38.89, -58.33 46.67 M0 0 C-9.72 7.78, -48.61 38.89, -58.33 46.67" stroke="#2b8a3e" stroke-width="1" fill="none"/></g><g transform="translate(1418.125 1242.3769641452366) rotate(0 -29.166641235351562 23.33333969116211)"><path d="M-42.73 21.04 C-47.68 29.18, -52.64 37.31, -58.33 46.67 M-42.73 21.04 C-48.1 29.85, -53.46 38.67, -58.33 46.67" stroke="#2b8a3e" stroke-width="1" fill="none"/></g><g transform="translate(1418.125 1242.3769641452366) rotate(0 -29.166641235351562 23.33333969116211)"><path d="M-29.91 37.07 C-38.93 40.12, -47.96 43.16, -58.33 46.67 M-29.91 37.07 C-39.68 40.37, -49.46 43.67, -58.33 46.67" stroke="#2b8a3e" stroke-width="1" fill="none"/></g></g><g stroke-linecap="round"><g transform="translate(1121.4583587646484 1321.5436435275608) rotate(0 44.16666030883789 17.91667938232422)"><path d="M0 0 C6.53 4.86, 24.44 23.19, 39.17 29.17 C53.89 35.14, 80.14 34.72, 88.33 35.83 M0 0 C6.53 4.86, 24.44 23.19, 39.17 29.17 C53.89 35.14, 80.14 34.72, 88.33 35.83" stroke="#2b8a3e" stroke-width="1" fill="none"/></g><g transform="translate(1121.4583587646484 1321.5436435275608) rotate(0 44.16666030883789 17.91667938232422)"><path d="M64.49 42.67 C74.01 39.94, 83.53 37.21, 88.33 35.83 M64.49 42.67 C69.6 41.2, 74.71 39.74, 88.33 35.83" stroke="#2b8a3e" stroke-width="1" fill="none"/></g><g transform="translate(1121.4583587646484 1321.5436435275608) rotate(0 44.16666030883789 17.91667938232422)"><path d="M65.67 25.74 C74.72 29.77, 83.77 33.8, 88.33 35.83 M65.67 25.74 C70.53 27.91, 75.39 30.07, 88.33 35.83" stroke="#2b8a3e" stroke-width="1" fill="none"/></g></g><g transform="translate(953.5416412353516 1198.6269641452366) rotate(0 144.5 11.5)"><text x="0" y="18" font-family="Helvetica, Segoe UI Emoji" font-size="20px" fill="#2b8a3e" text-anchor="start" style="white-space: pre;" direction="ltr">invest in company you believe in</text></g><g transform="translate(1129.7916412353516 1147.5436435275608) rotate(0 103.5 11.5)"><text x="0" y="18" font-family="Helvetica, Segoe UI Emoji" font-size="20px" fill="#2b8a3e" text-anchor="start" style="white-space: pre;" direction="ltr">invest in diversify index</text></g><g stroke-linecap="round"><g transform="translate(1758.125 1124.0436435275608) rotate(0 -254.16667938232422 41.66667938232419)"><path d="M0 0 C-84.72 13.89, -423.61 69.44, -508.33 83.33 M0 0 C-84.72 13.89, -423.61 69.44, -508.33 83.33" stroke="#2b8a3e" stroke-width="1" fill="none"/></g><g transform="translate(1758.125 1124.0436435275608) rotate(0 -254.16667938232422 41.66667938232419)"><path d="M-482.17 68.65 C-488.04 71.94, -493.91 75.24, -508.33 83.33 M-482.17 68.65 C-491.11 73.66, -500.04 78.68, -508.33 83.33" stroke="#2b8a3e" stroke-width="1" fill="none"/></g><g transform="translate(1758.125 1124.0436435275608) rotate(0 -254.16667938232422 41.66667938232419)"><path d="M-478.85 88.9 C-485.47 87.65, -492.08 86.4, -508.33 83.33 M-478.85 88.9 C-488.92 87, -498.99 85.1, -508.33 83.33" stroke="#2b8a3e" stroke-width="1" fill="none"/></g></g><g stroke-linecap="round"><g transform="translate(1758.9583587646484 1108.210322909885) rotate(0 -206.66667938232422 24.16666030883789)"><path d="M0 0 C-38.33 2.22, -161.11 5.28, -230 13.33 C-298.89 21.39, -382.78 42.5, -413.33 48.33 M0 0 C-38.33 2.22, -161.11 5.28, -230 13.33 C-298.89 21.39, -382.78 42.5, -413.33 48.33" stroke="#2b8a3e" stroke-width="1" fill="none"/></g><g transform="translate(1758.9583587646484 1108.210322909885) rotate(0 -206.66667938232422 24.16666030883789)"><path d="M-387.93 32.38 C-395.23 36.96, -402.52 41.54, -413.33 48.33 M-387.93 32.38 C-394.14 36.28, -400.36 40.19, -413.33 48.33" stroke="#2b8a3e" stroke-width="1" fill="none"/></g><g transform="translate(1758.9583587646484 1108.210322909885) rotate(0 -206.66667938232422 24.16666030883789)"><path d="M-383.62 52.44 C-392.15 51.26, -400.69 50.08, -413.33 48.33 M-383.62 52.44 C-390.89 51.44, -398.16 50.43, -413.33 48.33" stroke="#2b8a3e" stroke-width="1" fill="none"/></g></g><g transform="translate(892.7083206176758 1431.7519641452366) rotate(0 242.5 22.5)"><text x="0" y="18.5" font-family="Helvetica, Segoe UI Emoji" font-size="20px" fill="#5f3dc4" text-anchor="start" style="white-space: pre;" direction="ltr">history is the study of change, ironically used as a map</text><text x="0" y="41" font-family="Helvetica, Segoe UI Emoji" font-size="20px" fill="#5f3dc4" text-anchor="start" style="white-space: pre;" direction="ltr">of the fortune</text></g><g stroke-linecap="round"><g transform="translate(1797.9166412353516 1308.2420579343188) rotate(0 -206.24998092651367 71.70747175993114)"><path d="M0 0 C-68.75 23.9, -343.75 119.51, -412.5 143.41 M0 0 C-68.75 23.9, -343.75 119.51, -412.5 143.41" stroke="#5f3dc4" stroke-width="1" fill="none"/></g><g transform="translate(1797.9166412353516 1308.2420579343188) rotate(0 -206.24998092651367 71.70747175993114)"><path d="M-389.24 124.47 C-396.49 130.37, -403.74 136.28, -412.5 143.41 M-389.24 124.47 C-396.37 130.28, -403.51 136.09, -412.5 143.41" stroke="#5f3dc4" stroke-width="1" fill="none"/></g><g transform="translate(1797.9166412353516 1308.2420579343188) rotate(0 -206.24998092651367 71.70747175993114)"><path d="M-382.5 143.85 C-391.85 143.71, -401.2 143.58, -412.5 143.41 M-382.5 143.85 C-391.7 143.72, -400.9 143.58, -412.5 143.41" stroke="#5f3dc4" stroke-width="1" fill="none"/></g></g><g transform="translate(10 1411.960322909885) rotate(0 369.5 22.5)"><text x="0" y="18.5" font-family="Helvetica, Segoe UI Emoji" font-size="20px" fill="#5f3dc4" text-anchor="start" style="white-space: pre;" direction="ltr">Stocks don't necessary follow history. It imperfect information use by people making</text><text x="0" y="41" font-family="Helvetica, Segoe UI Emoji" font-size="20px" fill="#5f3dc4" text-anchor="start" style="white-space: pre;" direction="ltr">imperfect decision</text></g><g stroke-linecap="round"><g transform="translate(890.8333587646482 1458.899019330778) rotate(0 -65.4166793823241 -13.044344369480996)"><path d="M0 0 C-21.81 -4.35, -109.03 -21.74, -130.83 -26.09 M0 0 C-21.81 -4.35, -109.03 -21.74, -130.83 -26.09" stroke="#5f3dc4" stroke-width="1" fill="none"/></g><g transform="translate(890.8333587646482 1458.899019330778) rotate(0 -65.4166793823241 -13.044344369480996)"><path d="M-101.18 -30.64 C-109.9 -29.3, -118.62 -27.96, -130.83 -26.09 M-101.18 -30.64 C-110.75 -29.17, -120.32 -27.7, -130.83 -26.09" stroke="#5f3dc4" stroke-width="1" fill="none"/></g><g transform="translate(890.8333587646482 1458.899019330778) rotate(0 -65.4166793823241 -13.044344369480996)"><path d="M-105.19 -10.51 C-112.73 -15.09, -120.27 -19.67, -130.83 -26.09 M-105.19 -10.51 C-113.47 -15.54, -121.74 -20.57, -130.83 -26.09" stroke="#5f3dc4" stroke-width="1" fill="none"/></g></g><g transform="translate(937.7082824707031 1536.1269641452366) rotate(0 347.5 22.5)"><text x="0" y="18.5" font-family="Helvetica, Segoe UI Emoji" font-size="20px" fill="#5f3dc4" text-anchor="start" style="white-space: pre;" direction="ltr">In history of money, the more we look back the more the take aways should be</text><text x="0" y="41" font-family="Helvetica, Segoe UI Emoji" font-size="20px" fill="#5f3dc4" text-anchor="start" style="white-space: pre;" direction="ltr">general.</text></g><g stroke-linecap="round"><g transform="translate(1821.4583587646484 1324.460322909885) rotate(0 -116.66667938232422 103.33333969116208)"><path d="M0 0 C-38.89 34.44, -194.44 172.22, -233.33 206.67 M0 0 C-38.89 34.44, -194.44 172.22, -233.33 206.67" stroke="#5f3dc4" stroke-width="1" fill="none"/></g><g transform="translate(1821.4583587646484 1324.460322909885) rotate(0 -116.66667938232422 103.33333969116208)"><path d="M-219.03 180.29 C-222.32 186.36, -225.61 192.42, -233.33 206.67 M-219.03 180.29 C-222.68 187.02, -226.32 193.74, -233.33 206.67" stroke="#5f3dc4" stroke-width="1" fill="none"/></g><g transform="translate(1821.4583587646484 1324.460322909885) rotate(0 -116.66667938232422 103.33333969116208)"><path d="M-205.43 195.66 C-211.84 198.19, -218.25 200.72, -233.33 206.67 M-205.43 195.66 C-212.54 198.46, -219.65 201.27, -233.33 206.67" stroke="#5f3dc4" stroke-width="1" fill="none"/></g></g><g transform="translate(601.6666412353516 1530.4602847629124) rotate(0 99 34)"><text x="0" y="18.666666666666668" font-family="Helvetica, Segoe UI Emoji" font-size="20px" fill="#5f3dc4" text-anchor="start" style="white-space: pre;" direction="ltr">annecdote of the book</text><text x="0" y="41.333333333333336" font-family="Helvetica, Segoe UI Emoji" font-size="20px" fill="#5f3dc4" text-anchor="start" style="white-space: pre;" direction="ltr">of Benjamin Graham</text><text x="0" y="64" font-family="Helvetica, Segoe UI Emoji" font-size="20px" fill="#5f3dc4" text-anchor="start" style="white-space: pre;" direction="ltr">re-edition all the years</text></g><g stroke-linecap="round"><g transform="translate(933.3333206176758 1561.1270022922092) rotate(0 -61.25 -0.41667938232421875)"><path d="M0 0 C-20.42 -0.14, -102.08 -0.69, -122.5 -0.83 M0 0 C-20.42 -0.14, -102.08 -0.69, -122.5 -0.83" stroke="#5f3dc4" stroke-width="1" fill="none"/></g><g transform="translate(933.3333206176758 1561.1270022922092) rotate(0 -61.25 -0.41667938232421875)"><path d="M-94.24 -10.9 C-103.97 -7.43, -113.7 -3.97, -122.5 -0.83 M-94.24 -10.9 C-104.8 -7.14, -115.36 -3.38, -122.5 -0.83" stroke="#5f3dc4" stroke-width="1" fill="none"/></g><g transform="translate(933.3333206176758 1561.1270022922092) rotate(0 -61.25 -0.41667938232421875)"><path d="M-94.38 9.62 C-104.06 6.02, -113.75 2.42, -122.5 -0.83 M-94.38 9.62 C-104.89 5.71, -115.39 1.81, -122.5 -0.83" stroke="#5f3dc4" stroke-width="1" fill="none"/></g></g><g transform="translate(1731.8749618530273 1505.2936435275608) rotate(0 213.5 22.5)"><text x="0" y="18.5" font-family="Helvetica, Segoe UI Emoji" font-size="20px" fill="#343a40" text-anchor="start" style="white-space: pre;" direction="ltr">the most important part of every plan is planning</text><text x="0" y="41" font-family="Helvetica, Segoe UI Emoji" font-size="20px" fill="#343a40" text-anchor="start" style="white-space: pre;" direction="ltr">on your plan not going according to plan</text></g><g stroke-linecap="round"><g transform="translate(2024.7916412353516 1375.710322909885) rotate(0 -31.666641235351562 59.58333969116208)"><path d="M0 0 C-10.56 19.86, -52.78 99.31, -63.33 119.17 M0 0 C-10.56 19.86, -52.78 99.31, -63.33 119.17" stroke="#343a40" stroke-width="1" fill="none"/></g><g transform="translate(2024.7916412353516 1375.710322909885) rotate(0 -31.666641235351562 59.58333969116208)"><path d="M-59.16 89.46 C-60.56 99.42, -61.96 109.39, -63.33 119.17 M-59.16 89.46 C-60.2 96.86, -61.24 104.27, -63.33 119.17" stroke="#343a40" stroke-width="1" fill="none"/></g><g transform="translate(2024.7916412353516 1375.710322909885) rotate(0 -31.666641235351562 59.58333969116208)"><path d="M-41.04 99.09 C-48.52 105.82, -56 112.56, -63.33 119.17 M-41.04 99.09 C-46.6 104.09, -52.15 109.1, -63.33 119.17" stroke="#343a40" stroke-width="1" fill="none"/></g></g><g transform="translate(1044.0178571428573 1670.888910687159) rotate(0 303.5 11.5)"><text x="0" y="18" font-family="Helvetica, Segoe UI Emoji" font-size="20px" fill="#343a40" text-anchor="start" style="white-space: pre;" direction="ltr">calculate the buffer that feet you mentally and economically well with</text></g><g stroke-linecap="round"><g transform="translate(1725.6249618530273 1540.1909231518666) rotate(0 -112.10872556350631 60.55735253229466)"><path d="M0 0 C-37.37 20.19, -186.85 100.93, -224.22 121.11 M0 0 C-37.37 20.19, -186.85 100.93, -224.22 121.11" stroke="#343a40" stroke-width="1" fill="none"/></g><g transform="translate(1725.6249618530273 1540.1909231518666) rotate(0 -112.10872556350631 60.55735253229466)"><path d="M-204.29 98.69 C-210.77 105.99, -217.26 113.28, -224.22 121.11 M-204.29 98.69 C-211.17 106.43, -218.05 114.18, -224.22 121.11" stroke="#343a40" stroke-width="1" fill="none"/></g><g transform="translate(1725.6249618530273 1540.1909231518666) rotate(0 -112.10872556350631 60.55735253229466)"><path d="M-194.54 116.74 C-204.2 118.17, -213.85 119.59, -224.22 121.11 M-194.54 116.74 C-204.79 118.25, -215.04 119.76, -224.22 121.11" stroke="#343a40" stroke-width="1" fill="none"/></g></g><g transform="translate(1250.8332443237305 1736.1269641452366) rotate(0 312.5 11.5)"><text x="0" y="18" font-family="Helvetica, Segoe UI Emoji" font-size="20px" fill="#343a40" text-anchor="start" style="white-space: pre;" direction="ltr">You have to ensure you will be still standing on when the risks paid off.</text></g><g stroke-linecap="round"><g transform="translate(1856.25 1559.8770022922092) rotate(0 -27.08332061767578 84.58332061767578)"><path d="M0 0 C-3.61 17.78, -12.64 78.47, -21.67 106.67 C-30.69 134.86, -48.75 158.75, -54.17 169.17 M0 0 C-3.61 17.78, -12.64 78.47, -21.67 106.67 C-30.69 134.86, -48.75 158.75, -54.17 169.17" stroke="#343a40" stroke-width="1" fill="none"/></g><g transform="translate(1856.25 1559.8770022922092) rotate(0 -27.08332061767578 84.58332061767578)"><path d="M-48.39 139.73 C-49.74 146.62, -51.09 153.5, -54.17 169.17 M-48.39 139.73 C-50.59 150.97, -52.8 162.21, -54.17 169.17" stroke="#343a40" stroke-width="1" fill="none"/></g><g transform="translate(1856.25 1559.8770022922092) rotate(0 -27.08332061767578 84.58332061767578)"><path d="M-30.82 150.33 C-36.28 154.74, -41.74 159.14, -54.17 169.17 M-30.82 150.33 C-39.73 157.52, -48.65 164.71, -54.17 169.17" stroke="#343a40" stroke-width="1" fill="none"/></g></g><g transform="translate(2060.2083587646484 1614.6686816745334) rotate(0 226.5 22.5)"><text x="0" y="18.5" font-family="Helvetica, Segoe UI Emoji" font-size="20px" fill="#087f5b" text-anchor="start" style="white-space: pre;" direction="ltr">long-terme planning is harder than it seems</text><text x="0" y="41" font-family="Helvetica, Segoe UI Emoji" font-size="20px" fill="#087f5b" text-anchor="start" style="white-space: pre;" direction="ltr">because people goals and desire change over time</text></g><g stroke-linecap="round"><g transform="translate(2265.9126378455153 1398.0020022922092) rotate(0 0.7343790869041698 102.49999999999997)"><path d="M0 0 C0.24 34.17, 1.22 170.83, 1.47 205 M0 0 C0.24 34.17, 1.22 170.83, 1.47 205" stroke="#087f5b" stroke-width="1" fill="none"/></g><g transform="translate(2265.9126378455153 1398.0020022922092) rotate(0 0.7343790869041698 102.49999999999997)"><path d="M-8.99 176.88 C-5.94 185.1, -2.88 193.32, 1.47 205 M-8.99 176.88 C-4.87 187.97, -0.74 199.06, 1.47 205" stroke="#087f5b" stroke-width="1" fill="none"/></g><g transform="translate(2265.9126378455153 1398.0020022922092) rotate(0 0.7343790869041698 102.49999999999997)"><path d="M11.53 176.74 C8.59 185, 5.65 193.26, 1.47 205 M11.53 176.74 C7.56 187.88, 3.59 199.03, 1.47 205" stroke="#087f5b" stroke-width="1" fill="none"/></g></g><g transform="translate(1854.791603088379 1826.335208468967) rotate(0 203.5 11.5)"><text x="0" y="18" font-family="Helvetica, Segoe UI Emoji" font-size="20px" fill="#087f5b" text-anchor="start" style="white-space: pre;" direction="ltr">Except emergency, do not stop compounding.</text></g><g stroke-linecap="round"><g transform="translate(2129.3452299741125 1666.335322909885) rotate(0 -78.38098499555284 76.24994277954107)"><path d="M0 0 C-26.13 25.42, -130.63 127.08, -156.76 152.5 M0 0 C-26.13 25.42, -130.63 127.08, -156.76 152.5" stroke="#087f5b" stroke-width="1" fill="none"/></g><g transform="translate(2129.3452299741125 1666.335322909885) rotate(0 -78.38098499555284 76.24994277954107)"><path d="M-143.71 125.49 C-147.55 133.43, -151.38 141.37, -156.76 152.5 M-143.71 125.49 C-147.42 133.17, -151.14 140.86, -156.76 152.5" stroke="#087f5b" stroke-width="1" fill="none"/></g><g transform="translate(2129.3452299741125 1666.335322909885) rotate(0 -78.38098499555284 76.24994277954107)"><path d="M-129.4 140.2 C-137.44 143.81, -145.49 147.43, -156.76 152.5 M-129.4 140.2 C-137.18 143.7, -144.97 147.2, -156.76 152.5" stroke="#087f5b" stroke-width="1" fill="none"/></g></g><g transform="translate(2096.875 1927.1686435275608) rotate(0 216.5 22.5)"><text x="0" y="18.5" font-family="Helvetica, Segoe UI Emoji" font-size="20px" fill="#087f5b" text-anchor="start" style="white-space: pre;" direction="ltr">avoid both living frugally or in luxe. Cause we will</text><text x="0" y="41" font-family="Helvetica, Segoe UI Emoji" font-size="20px" fill="#087f5b" text-anchor="start" style="white-space: pre;" direction="ltr">change as a person during the journey</text></g><g stroke-linecap="round"><g transform="translate(2314.2545767717957 1671.335322909885) rotate(0 1.491504794371906 126.66666030883789)"><path d="M0 0 C0.5 42.22, 2.49 211.11, 2.98 253.33 M0 0 C0.5 42.22, 2.49 211.11, 2.98 253.33" stroke="#087f5b" stroke-width="1" fill="none"/></g><g transform="translate(2314.2545767717957 1671.335322909885) rotate(0 1.491504794371906 126.66666030883789)"><path d="M-7.61 225.27 C-5.2 231.65, -2.79 238.03, 2.98 253.33 M-7.61 225.27 C-3.74 235.5, 0.12 245.74, 2.98 253.33" stroke="#087f5b" stroke-width="1" fill="none"/></g><g transform="translate(2314.2545767717957 1671.335322909885) rotate(0 1.491504794371906 126.66666030883789)"><path d="M12.91 225.02 C10.65 231.46, 8.4 237.9, 2.98 253.33 M12.91 225.02 C9.29 235.35, 5.67 245.68, 2.98 253.33" stroke="#087f5b" stroke-width="1" fill="none"/></g></g><g transform="translate(3548.5826899210606 813.53924730089) rotate(0 315.5000000000001 34)"><text x="0" y="18.666666666666668" font-family="Helvetica, Segoe UI Emoji" font-size="20px" fill="#a61e4d" text-anchor="start" style="white-space: pre;" direction="ltr">You can make good decision that lead to to poor financial outcomes. </text><text x="0" y="41.333333333333336" font-family="Helvetica, Segoe UI Emoji" font-size="20px" fill="#a61e4d" text-anchor="start" style="white-space: pre;" direction="ltr">And you can make bad decisions that lead to good financial outcomes. </text><text x="0" y="64" font-family="Helvetica, Segoe UI Emoji" font-size="20px" fill="#a61e4d" text-anchor="start" style="white-space: pre;" direction="ltr">You have to account for the role of luck and risk.</text></g><g stroke-linecap="round"><g transform="translate(2885.8099034778475 824.0922946021672) rotate(0 329.89440528931976 9.095179966517875)"><path d="M0 0 C109.96 3.03, 549.82 15.16, 659.79 18.19 M0 0 C109.96 3.03, 549.82 15.16, 659.79 18.19" stroke="#a61e4d" stroke-width="1" fill="none"/></g><g transform="translate(2885.8099034778475 824.0922946021672) rotate(0 329.89440528931976 9.095179966517875)"><path d="M631.33 27.67 C640.64 24.57, 649.95 21.47, 659.79 18.19 M631.33 27.67 C639.24 25.04, 647.15 22.4, 659.79 18.19" stroke="#a61e4d" stroke-width="1" fill="none"/></g><g transform="translate(2885.8099034778475 824.0922946021672) rotate(0 329.89440528931976 9.095179966517875)"><path d="M631.89 7.16 C641.02 10.77, 650.15 14.38, 659.79 18.19 M631.89 7.16 C639.64 10.22, 647.4 13.29, 659.79 18.19" stroke="#a61e4d" stroke-width="1" fill="none"/></g></g><g transform="translate(2705.2281473553367 351.33033171154227) rotate(0 3.5 11.5)"><text x="0" y="18" font-family="Helvetica, Segoe UI Emoji" font-size="20px" fill="#862e9c" text-anchor="start" style="white-space: pre;" direction="ltr"/></g><g transform="translate(2596.656805976988 270.80649312337255) rotate(0 249.5 11.5)"><text x="0" y="18" font-family="Helvetica, Segoe UI Emoji" font-size="20px" fill="#e67700" text-anchor="start" style="white-space: pre;" direction="ltr">Getting money and keeping money are two distinct skills</text></g><g stroke-linecap="round"><g transform="translate(2415.2281473553367 662.2351517450244) rotate(0 102.58073228402844 -177.1428789411272)"><path d="M0 0 C2.38 -7.78, -13.65 -29.52, 14.29 -46.67 C42.22 -63.81, 135.81 -51.59, 167.62 -102.86 C199.43 -154.13, 198.9 -312.38, 205.16 -354.29 M0 0 C2.38 -7.78, -13.65 -29.52, 14.29 -46.67 C42.22 -63.81, 135.81 -51.59, 167.62 -102.86 C199.43 -154.13, 198.9 -312.38, 205.16 -354.29" stroke="#e67700" stroke-width="1" fill="none"/></g><g transform="translate(2415.2281473553367 662.2351517450244) rotate(0 102.58073228402844 -177.1428789411272)"><path d="M213.23 -325.39 C210.06 -336.72, 206.9 -348.05, 205.16 -354.29 M213.23 -325.39 C211.61 -331.19, 209.99 -337, 205.16 -354.29" stroke="#e67700" stroke-width="1" fill="none"/></g><g transform="translate(2415.2281473553367 662.2351517450244) rotate(0 102.58073228402844 -177.1428789411272)"><path d="M192.77 -326.97 C197.63 -337.68, 202.49 -348.39, 205.16 -354.29 M192.77 -326.97 C195.26 -332.45, 197.75 -337.94, 205.16 -354.29" stroke="#e67700" stroke-width="1" fill="none"/></g></g><g transform="translate(3110.4661844647117 13.711269560314918) rotate(0 353 11.5)"><text x="0" y="18" font-family="Helvetica, Segoe UI Emoji" font-size="20px" fill="#e67700" text-anchor="start" style="white-space: pre;" direction="ltr"> getting money necessitates risk taking, hard word, and an optimistic disposition</text></g><g stroke-linecap="round"><g transform="translate(3027.659576758424 266.99702744256933) rotate(0 77.32581679849636 -110)"><path d="M0 0 C25.78 -36.67, 128.88 -183.33, 154.65 -220 M0 0 C25.78 -36.67, 128.88 -183.33, 154.65 -220" stroke="#e67700" stroke-width="1" fill="none"/></g><g transform="translate(3027.659576758424 266.99702744256933) rotate(0 77.32581679849636 -110)"><path d="M146.83 -191.04 C148.89 -198.64, 150.94 -206.24, 154.65 -220 M146.83 -191.04 C149.32 -200.24, 151.8 -209.44, 154.65 -220" stroke="#e67700" stroke-width="1" fill="none"/></g><g transform="translate(3027.659576758424 266.99702744256933) rotate(0 77.32581679849636 -110)"><path d="M130.05 -202.84 C136.5 -207.34, 142.96 -211.85, 154.65 -220 M130.05 -202.84 C137.86 -208.29, 145.68 -213.74, 154.65 -220" stroke="#e67700" stroke-width="1" fill="none"/></g></g><g transform="translate(3238.56145162431 167.99702744256945) rotate(0 222.5 34)"><text x="0" y="18.666666666666668" font-family="Helvetica, Segoe UI Emoji" font-size="20px" fill="#e67700" text-anchor="start" style="white-space: pre;" direction="ltr"> keeping money requires you to mitigate risk, </text><text x="0" y="41.333333333333336" font-family="Helvetica, Segoe UI Emoji" font-size="20px" fill="#e67700" text-anchor="start" style="white-space: pre;" direction="ltr">avoid getting greedy, and to remember that things </text><text x="0" y="64" font-family="Helvetica, Segoe UI Emoji" font-size="20px" fill="#e67700" text-anchor="start" style="white-space: pre;" direction="ltr">can be taken from you at any moment.</text></g><g stroke-linecap="round"><g transform="translate(3106.1805573720776 272.7113131568551) rotate(0 62.380937848772305 -34.28571428571428)"><path d="M0 0 C20.79 -11.43, 103.97 -57.14, 124.76 -68.57 M0 0 C20.79 -11.43, 103.97 -57.14, 124.76 -68.57" stroke="#e67700" stroke-width="1" fill="none"/></g><g transform="translate(3106.1805573720776 272.7113131568551) rotate(0 62.380937848772305 -34.28571428571428)"><path d="M105 -46 C110.54 -52.32, 116.07 -58.65, 124.76 -68.57 M105 -46 C109.5 -51.14, 114 -56.28, 124.76 -68.57" stroke="#e67700" stroke-width="1" fill="none"/></g><g transform="translate(3106.1805573720776 272.7113131568551) rotate(0 62.380937848772305 -34.28571428571428)"><path d="M95.11 -63.98 C103.42 -65.27, 111.73 -66.55, 124.76 -68.57 M95.11 -63.98 C101.86 -65.03, 108.61 -66.07, 124.76 -68.57" stroke="#e67700" stroke-width="1" fill="none"/></g></g><g transform="translate(3354.990284632123 308.9493502662292) rotate(0 335.5 79.5)"><text x="0" y="17.714285714285715" font-family="Helvetica, Segoe UI Emoji" font-size="20px" fill="#000000" text-anchor="start" style="white-space: pre;" direction="ltr">Humans are not spreadsheets!</text><text x="0" y="40.42857142857143" font-family="Helvetica, Segoe UI Emoji" font-size="20px" fill="#000000" text-anchor="start" style="white-space: pre;" direction="ltr">So even if the models  say that you maximize returns by being only 1-5% in </text><text x="0" y="63.14285714285714" font-family="Helvetica, Segoe UI Emoji" font-size="20px" fill="#000000" text-anchor="start" style="white-space: pre;" direction="ltr">cash, you might actually hold 10-20% in cash to protect </text><text x="0" y="85.85714285714286" font-family="Helvetica, Segoe UI Emoji" font-size="20px" fill="#000000" text-anchor="start" style="white-space: pre;" direction="ltr">yourself from your psychology when things go poorly. </text><text x="0" y="108.57142857142858" font-family="Helvetica, Segoe UI Emoji" font-size="20px" fill="#000000" text-anchor="start" style="white-space: pre;" direction="ltr">And if this larger cash reserve saves you from one </text><text x="0" y="131.28571428571428" font-family="Helvetica, Segoe UI Emoji" font-size="20px" fill="#000000" text-anchor="start" style="white-space: pre;" direction="ltr">making one big financial mistake, it might be the </text><text x="0" y="154" font-family="Helvetica, Segoe UI Emoji" font-size="20px" fill="#000000" text-anchor="start" style="white-space: pre;" direction="ltr">best move for your portfolio.</text></g><g transform="translate(1040.704308767168 100.85412670317169) rotate(0 310.5 68)"><text x="0" y="18.666666666666668" font-family="Helvetica, Segoe UI Emoji" font-size="20px" fill="#000000" text-anchor="start" style="white-space: pre;" direction="ltr">The investment decisions you make on 99% of days don’t matter. </text><text x="0" y="41.333333333333336" font-family="Helvetica, Segoe UI Emoji" font-size="20px" fill="#000000" text-anchor="start" style="white-space: pre;" direction="ltr">It’s the decisions you make on a small number of days when </text><text x="0" y="64" font-family="Helvetica, Segoe UI Emoji" font-size="20px" fill="#000000" text-anchor="start" style="white-space: pre;" direction="ltr">something big is happening – a massive downturn, a frothy market, </text><text x="0" y="86.66666666666667" font-family="Helvetica, Segoe UI Emoji" font-size="20px" fill="#000000" text-anchor="start" style="white-space: pre;" direction="ltr">a speculative bubble, etc. – that make all the difference. Warren Buffet</text><text x="0" y="109.33333333333334" font-family="Helvetica, Segoe UI Emoji" font-size="20px" fill="#000000" text-anchor="start" style="white-space: pre;" direction="ltr">has owned 400 to 500 stocks during his life. </text><text x="0" y="132" font-family="Helvetica, Segoe UI Emoji" font-size="20px" fill="#000000" text-anchor="start" style="white-space: pre;" direction="ltr">He’s made the majority of his money on 10 of them.</text></g><g transform="translate(225.22823454841796 1117.2350645519434) rotate(0 296.5 45.5)"><text x="0" y="17.75" font-family="Helvetica, Segoe UI Emoji" font-size="20px" fill="#000000" text-anchor="start" style="white-space: pre;" direction="ltr">The optimal portfolio is one that allows you to sleep at night. </text><text x="0" y="40.5" font-family="Helvetica, Segoe UI Emoji" font-size="20px" fill="#000000" text-anchor="start" style="white-space: pre;" direction="ltr">It allows you to generate reasonable returns, while also </text><text x="0" y="63.25" font-family="Helvetica, Segoe UI Emoji" font-size="20px" fill="#000000" text-anchor="start" style="white-space: pre;" direction="ltr">maximizing your quality of life and control over your life. </text><text x="0" y="86" font-family="Helvetica, Segoe UI Emoji" font-size="20px" fill="#000000" text-anchor="start" style="white-space: pre;" direction="ltr">It will stand the test of tough recessions and other blips in the road.</text></g><g transform="translate(336.41861083015533 1772.711269560314) rotate(0 394.5 11.5)"><text x="0" y="18" font-family="Helvetica, Segoe UI Emoji" font-size="20px" fill="#000000" text-anchor="start" style="white-space: pre;" direction="ltr">difference between what you can technically endure vs. what you can emotionally endure</text></g><g stroke-linecap="round"><g transform="translate(1059.8399207113373 1698.42559887114) rotate(0 -27.8069264065889 30.95236642020086)"><path d="M0 0 C-9.27 10.32, -46.34 51.59, -55.61 61.9 M0 0 C-9.27 10.32, -46.34 51.59, -55.61 61.9" stroke="#000000" stroke-width="1" fill="none"/></g><g transform="translate(1059.8399207113373 1698.42559887114) rotate(0 -27.8069264065889 30.95236642020086)"><path d="M-44.41 34.08 C-47.95 42.87, -51.49 51.66, -55.61 61.9 M-44.41 34.08 C-46.77 39.94, -49.13 45.81, -55.61 61.9" stroke="#000000" stroke-width="1" fill="none"/></g><g transform="translate(1059.8399207113373 1698.42559887114) rotate(0 -27.8069264065889 30.95236642020086)"><path d="M-29.14 47.79 C-37.51 52.25, -45.87 56.71, -55.61 61.9 M-29.14 47.79 C-34.72 50.77, -40.3 53.74, -55.61 61.9" stroke="#000000" stroke-width="1" fill="none"/></g></g><g transform="translate(2595.4662716577923 1401.806493123372) rotate(0 55.5 11.5)"><text x="0" y="18" font-family="Helvetica, Segoe UI Emoji" font-size="20px" fill="#862e9c" text-anchor="start" style="white-space: pre;" direction="ltr">Remember: </text></g><g transform="translate(2696.418681674533 1520.8540831066312) rotate(0 382.5 11.5)"><text x="0" y="18" font-family="Helvetica, Segoe UI Emoji" font-size="20px" fill="#862e9c" text-anchor="start" style="white-space: pre;" direction="ltr">And this leads to ingenuity that creates changes that only the optimist might believe in.</text></g><g transform="translate(2633.08537740556 1461.2826545352027) rotate(0 250.5 11.5)"><text x="0" y="18" font-family="Helvetica, Segoe UI Emoji" font-size="20px" fill="#862e9c" text-anchor="start" style="white-space: pre;" direction="ltr">problems often create demand for change and solutions.</text></g><g stroke-linecap="round"><g transform="translate(2488.323327321855 1340.330375308082) rotate(0 48.09531075613839 39.24847508866017)"><path d="M0 0 C3.33 10, 3.97 46.92, 20 60 C36.03 73.08, 83.49 75.41, 96.19 78.5 M0 0 C3.33 10, 3.97 46.92, 20 60 C36.03 73.08, 83.49 75.41, 96.19 78.5" stroke="#862e9c" stroke-width="1" fill="none"/></g><g transform="translate(2488.323327321855 1340.330375308082) rotate(0 48.09531075613839 39.24847508866017)"><path d="M66.78 84.42 C72.83 83.2, 78.88 81.98, 96.19 78.5 M66.78 84.42 C74.31 82.9, 81.84 81.39, 96.19 78.5" stroke="#862e9c" stroke-width="1" fill="none"/></g><g transform="translate(2488.323327321855 1340.330375308082) rotate(0 48.09531075613839 39.24847508866017)"><path d="M69.85 64.13 C75.27 67.08, 80.69 70.04, 96.19 78.5 M69.85 64.13 C76.6 67.81, 83.34 71.49, 96.19 78.5" stroke="#862e9c" stroke-width="1" fill="none"/></g></g><g stroke-linecap="round"><g transform="translate(2595.942520262703 1431.7589031401135) rotate(0 16.190447126116112 24.615764157301555)"><path d="M0 0 C0.48 6.03, -2.54 27.99, 2.86 36.19 C8.25 44.4, 27.46 47.06, 32.38 49.23 M0 0 C0.48 6.03, -2.54 27.99, 2.86 36.19 C8.25 44.4, 27.46 47.06, 32.38 49.23" stroke="#862e9c" stroke-width="1" fill="none"/></g><g transform="translate(2595.942520262703 1431.7589031401135) rotate(0 16.190447126116112 24.615764157301555)"><path d="M16.27 50.23 C19.72 50.01, 23.16 49.8, 32.38 49.23 M16.27 50.23 C19.75 50.01, 23.23 49.8, 32.38 49.23" stroke="#862e9c" stroke-width="1" fill="none"/></g><g transform="translate(2595.942520262703 1431.7589031401135) rotate(0 16.190447126116112 24.615764157301555)"><path d="M19.4 39.64 C22.18 41.69, 24.95 43.74, 32.38 49.23 M19.4 39.64 C22.2 41.71, 25 43.78, 32.38 49.23" stroke="#862e9c" stroke-width="1" fill="none"/></g></g><g stroke-linecap="round"><g transform="translate(2645.4691895436526 1496.520778837658) rotate(0 20.47328712250993 19.047633579799026)"><path d="M0 0 C-0.32 5.24, -9.05 25.08, -1.91 31.43 C5.23 37.78, 35.39 36.98, 42.85 38.1 M0 0 C-0.32 5.24, -9.05 25.08, -1.91 31.43 C5.23 37.78, 35.39 36.98, 42.85 38.1" stroke="#862e9c" stroke-width="1" fill="none"/></g><g transform="translate(2645.4691895436526 1496.520778837658) rotate(0 20.47328712250993 19.047633579799026)"><path d="M21.15 44.48 C27.36 42.66, 33.56 40.83, 42.85 38.1 M21.15 44.48 C26.55 42.9, 31.95 41.31, 42.85 38.1" stroke="#862e9c" stroke-width="1" fill="none"/></g><g transform="translate(2645.4691895436526 1496.520778837658) rotate(0 20.47328712250993 19.047633579799026)"><path d="M22.12 29.04 C28.05 31.63, 33.98 34.22, 42.85 38.1 M22.12 29.04 C27.28 31.29, 32.44 33.54, 42.85 38.1" stroke="#862e9c" stroke-width="1" fill="none"/></g></g><g transform="translate(2778.08529021248 1403.235151745024) rotate(0 356.49999999999994 11.5)"><text x="0" y="18" font-family="Helvetica, Segoe UI Emoji" font-size="20px" fill="#364fc7" text-anchor="start" style="white-space: pre;" direction="ltr">Avoid the illusion that you have full control in the uncertain world in which we live</text></g><g transform="translate(3413.323327321855 1484.1873873756044) rotate(0 153.5 11.5)"><text x="0" y="18" font-family="Helvetica, Segoe UI Emoji" font-size="20px" fill="#364fc7" text-anchor="start" style="white-space: pre;" direction="ltr">cause the market is unpredectable</text></g><g stroke-linecap="round"><g transform="translate(3204.657983731152 1432.4732324509391) rotate(0 100.0470011061775 36.5476117815291)"><path d="M0 0 C6.21 12.18, 3.89 63.28, 37.24 73.1 C70.59 82.91, 172.95 61.24, 200.09 58.87 M0 0 C6.21 12.18, 3.89 63.28, 37.24 73.1 C70.59 82.91, 172.95 61.24, 200.09 58.87" stroke="#364fc7" stroke-width="1" fill="none"/></g><g transform="translate(3204.657983731152 1432.4732324509391) rotate(0 100.0470011061775 36.5476117815291)"><path d="M173.68 73.1 C179.49 69.97, 185.3 66.84, 200.09 58.87 M173.68 73.1 C183.72 67.7, 193.75 62.29, 200.09 58.87" stroke="#364fc7" stroke-width="1" fill="none"/></g><g transform="translate(3204.657983731152 1432.4732324509391) rotate(0 100.0470011061775 36.5476117815291)"><path d="M170.72 52.8 C177.18 54.14, 183.64 55.47, 200.09 58.87 M170.72 52.8 C181.88 55.11, 193.03 57.41, 200.09 58.87" stroke="#364fc7" stroke-width="1" fill="none"/></g></g><g stroke-linecap="round"><g transform="translate(2707.6584973120653 1267.4731888543988) rotate(0 30.915222510228034 64.11551175267488)"><path d="M0 0 C10.31 21.37, 51.53 106.86, 61.83 128.23 M0 0 C10.31 21.37, 51.53 106.86, 61.83 128.23" stroke="#364fc7" stroke-width="1" fill="none"/></g><g transform="translate(2707.6584973120653 1267.4731888543988) rotate(0 30.915222510228034 64.11551175267488)"><path d="M40.34 107.29 C47.8 114.56, 55.26 121.83, 61.83 128.23 M40.34 107.29 C46.36 113.16, 52.37 119.02, 61.83 128.23" stroke="#364fc7" stroke-width="1" fill="none"/></g><g transform="translate(2707.6584973120653 1267.4731888543988) rotate(0 30.915222510228034 64.11551175267488)"><path d="M58.83 98.38 C59.87 108.74, 60.91 119.11, 61.83 128.23 M58.83 98.38 C59.67 106.74, 60.51 115.09, 61.83 128.23" stroke="#364fc7" stroke-width="1" fill="none"/></g></g><g transform="translate(2922.609041607569 1325.330418904622) rotate(0 224.00000000000006 22.5)"><text x="0" y="18.5" font-family="Helvetica, Segoe UI Emoji" font-size="20px" fill="#364fc7" text-anchor="start" style="white-space: pre;" direction="ltr">beware taking financial cues from people playing a</text><text x="0" y="41" font-family="Helvetica, Segoe UI Emoji" font-size="20px" fill="#364fc7" text-anchor="start" style="white-space: pre;" direction="ltr">different game than you are</text></g><g stroke-linecap="round"><g transform="translate(2845.840357707602 1267.3221216353154) rotate(0 48.3695287051155 26.86129149179621)"><path d="M0 0 C16.12 8.95, 80.62 44.77, 96.74 53.72 M0 0 C16.12 8.95, 80.62 44.77, 96.74 53.72" stroke="#364fc7" stroke-width="1" fill="none"/></g><g transform="translate(2845.840357707602 1267.3221216353154) rotate(0 48.3695287051155 26.86129149179621)"><path d="M67.11 49.01 C73.74 50.06, 80.36 51.12, 96.74 53.72 M67.11 49.01 C73.25 49.98, 79.39 50.96, 96.74 53.72" stroke="#364fc7" stroke-width="1" fill="none"/></g><g transform="translate(2845.840357707602 1267.3221216353154) rotate(0 48.3695287051155 26.86129149179621)"><path d="M77.08 31.07 C81.47 36.13, 85.87 41.2, 96.74 53.72 M77.08 31.07 C81.15 35.76, 85.23 40.46, 96.74 53.72" stroke="#364fc7" stroke-width="1" fill="none"/></g></g><g transform="translate(2668.08529021248 1595.3302881150016) rotate(0 219.5 22.5)"><text x="0" y="18.5" font-family="Helvetica, Segoe UI Emoji" font-size="20px" fill="#862e9c" text-anchor="start" style="white-space: pre;" direction="ltr">optimism sound like sales pitch.</text><text x="0" y="41" font-family="Helvetica, Segoe UI Emoji" font-size="20px" fill="#862e9c" text-anchor="start" style="white-space: pre;" direction="ltr">Pessimism sound like someone trying to help you</text></g><g stroke-linecap="round"><g transform="translate(2442.40619330413 1348.6636359805152) rotate(0 109.85654074542958 123.91966037393678)"><path d="M0 0 C36.62 41.31, 183.09 206.53, 219.71 247.84 M0 0 C36.62 41.31, 183.09 206.53, 219.71 247.84" stroke="#862e9c" stroke-width="1" fill="none"/></g><g transform="translate(2442.40619330413 1348.6636359805152) rotate(0 109.85654074542958 123.91966037393678)"><path d="M193.33 233.55 C202.95 238.76, 212.56 243.96, 219.71 247.84 M193.33 233.55 C198.87 236.55, 204.4 239.54, 219.71 247.84" stroke="#862e9c" stroke-width="1" fill="none"/></g><g transform="translate(2442.40619330413 1348.6636359805152) rotate(0 109.85654074542958 123.91966037393678)"><path d="M208.69 219.94 C212.71 230.11, 216.72 240.27, 219.71 247.84 M208.69 219.94 C211 225.79, 213.31 231.64, 219.71 247.84" stroke="#862e9c" stroke-width="1" fill="none"/></g></g><g transform="translate(2641.418594481453 1712.4731888543988) rotate(0 290 22.5)"><text x="0" y="18.5" font-family="Helvetica, Segoe UI Emoji" font-size="20px" fill="#862e9c" text-anchor="start" style="white-space: pre;" direction="ltr">There is a lot of overnight tragedy and rarely overnight miracle.</text><text x="0" y="41" font-family="Helvetica, Segoe UI Emoji" font-size="20px" fill="#862e9c" text-anchor="start" style="white-space: pre;" direction="ltr">Growth happen by compounding, destruction in matter of second.</text></g><g stroke-linecap="round"><g transform="translate(2403.323414514935 1345.8065367199124) rotate(0 113.33334786551339 189.04761178152907)"><path d="M0 0 C11.59 35.24, 31.75 148.41, 69.52 211.43 C107.3 274.44, 200.48 350.32, 226.67 378.1 M0 0 C11.59 35.24, 31.75 148.41, 69.52 211.43 C107.3 274.44, 200.48 350.32, 226.67 378.1" stroke="#862e9c" stroke-width="1" fill="none"/></g><g transform="translate(2403.323414514935 1345.8065367199124) rotate(0 113.33334786551339 189.04761178152907)"><path d="M199.15 366.15 C207.06 369.59, 214.97 373.02, 226.67 378.1 M199.15 366.15 C206.24 369.23, 213.33 372.31, 226.67 378.1" stroke="#862e9c" stroke-width="1" fill="none"/></g><g transform="translate(2403.323414514935 1345.8065367199124) rotate(0 113.33334786551339 189.04761178152907)"><path d="M213.26 351.26 C217.11 358.97, 220.97 366.69, 226.67 378.1 M213.26 351.26 C216.72 358.18, 220.17 365.09, 226.67 378.1" stroke="#862e9c" stroke-width="1" fill="none"/></g></g><g transform="translate(3529.0377002292207 1328.187518165225) rotate(0 137.5 11.5)"><text x="0" y="18" font-family="Helvetica, Segoe UI Emoji" font-size="20px" fill="#364fc7" text-anchor="start" style="white-space: pre;" direction="ltr">2 story about managing money</text></g><g transform="translate(4143.56145162431 1474.139884585426) rotate(0 216.5 56.5)"><text x="0" y="18.6" font-family="Helvetica, Segoe UI Emoji" font-size="20px" fill="#364fc7" text-anchor="start" style="white-space: pre;" direction="ltr">1. The more you want something to be true, </text><text x="0" y="41.2" font-family="Helvetica, Segoe UI Emoji" font-size="20px" fill="#364fc7" text-anchor="start" style="white-space: pre;" direction="ltr">the more likely you are to believe a</text><text x="0" y="63.80000000000001" font-family="Helvetica, Segoe UI Emoji" font-size="20px" fill="#364fc7" text-anchor="start" style="white-space: pre;" direction="ltr">story that overestimated the odds of it being true.</text><text x="0" y="86.4" font-family="Helvetica, Segoe UI Emoji" font-size="20px" fill="#364fc7" text-anchor="start" style="white-space: pre;" direction="ltr"/><text x="0" y="109" font-family="Helvetica, Segoe UI Emoji" font-size="20px" fill="#364fc7" text-anchor="start" style="white-space: pre;" direction="ltr">Then you should Always keep room for error.</text></g><g stroke-linecap="round"><g transform="translate(2857.1329237922796 1245.9303527418465) rotate(0 334.2856924874441 41.52780892767501)"><path d="M0 0 C111.43 13.84, 557.14 69.21, 668.57 83.06 M0 0 C111.43 13.84, 557.14 69.21, 668.57 83.06" stroke="#364fc7" stroke-width="1" fill="none"/></g><g transform="translate(2857.1329237922796 1245.9303527418465) rotate(0 334.2856924874441 41.52780892767501)"><path d="M639.33 89.76 C646.4 88.14, 653.47 86.52, 668.57 83.06 M639.33 89.76 C650.94 87.1, 662.55 84.44, 668.57 83.06" stroke="#364fc7" stroke-width="1" fill="none"/></g><g transform="translate(2857.1329237922796 1245.9303527418465) rotate(0 334.2856924874441 41.52780892767501)"><path d="M641.86 69.4 C648.32 72.7, 654.77 76, 668.57 83.06 M641.86 69.4 C652.46 74.82, 663.07 80.24, 668.57 83.06" stroke="#364fc7" stroke-width="1" fill="none"/></g></g><g stroke-linecap="round"><g transform="translate(3778.2145829491287 1360.8065367199124) rotate(0 176.4829436149348 66.0855241917464)"><path d="M0 0 C58.83 22.03, 294.14 110.14, 352.97 132.17 M0 0 C58.83 22.03, 294.14 110.14, 352.97 132.17" stroke="#364fc7" stroke-width="1" fill="none"/></g><g transform="translate(3778.2145829491287 1360.8065367199124) rotate(0 176.4829436149348 66.0855241917464)"><path d="M322.97 131.89 C330.4 131.96, 337.83 132.03, 352.97 132.17 M322.97 131.89 C331.91 131.98, 340.85 132.06, 352.97 132.17" stroke="#364fc7" stroke-width="1" fill="none"/></g><g transform="translate(3778.2145829491287 1360.8065367199124) rotate(0 176.4829436149348 66.0855241917464)"><path d="M330.16 112.68 C335.81 117.5, 341.46 122.33, 352.97 132.17 M330.16 112.68 C336.96 118.49, 343.76 124.3, 352.97 132.17" stroke="#364fc7" stroke-width="1" fill="none"/></g></g><g transform="translate(3893.0852902124807 1651.0445738292872) rotate(0 366.9999999999999 22.5)"><text x="0" y="18.5" font-family="Helvetica, Segoe UI Emoji" font-size="20px" fill="#364fc7" text-anchor="start" style="white-space: pre;" direction="ltr">2. Everyone has an incomplete view of the world. But we form a complete narrative</text><text x="0" y="41" font-family="Helvetica, Segoe UI Emoji" font-size="20px" fill="#364fc7" text-anchor="start" style="white-space: pre;" direction="ltr">to fill in the gaps.</text></g><g stroke-linecap="round"><g transform="translate(3662.6090416075695 1361.758903140113) rotate(0 116.66669573102683 140.95238821847101)"><path d="M0 0 C38.89 46.98, 194.44 234.92, 233.33 281.9 M0 0 C38.89 46.98, 194.44 234.92, 233.33 281.9" stroke="#364fc7" stroke-width="1" fill="none"/></g><g transform="translate(3662.6090416075695 1361.758903140113) rotate(0 116.66669573102683 140.95238821847101)"><path d="M207.45 266.73 C212.64 269.77, 217.82 272.81, 233.33 281.9 M207.45 266.73 C216.81 272.22, 226.17 277.7, 233.33 281.9" stroke="#364fc7" stroke-width="1" fill="none"/></g><g transform="translate(3662.6090416075695 1361.758903140113) rotate(0 116.66669573102683 140.95238821847101)"><path d="M223.26 253.65 C225.28 259.3, 227.3 264.96, 233.33 281.9 M223.26 253.65 C226.9 263.86, 230.55 274.08, 233.33 281.9" stroke="#364fc7" stroke-width="1" fill="none"/></g></g></svg>